SplineFontDB: 3.0
FontName: Runic_Sans_Inline
FullName: Runic Sans Inline
FamilyName: Runic Sans Inline
Weight: Inline
Copyright: Created with FontForge 2.0 (http://fontforge.sf.net)\nDesigned by Sebastien Hayez: www.hayez.kudeta-graphic.com\nDistributed by VTF: www.velvetyne.fr
UComments: "2011-8-1: Created." 
Version: 001.000
ItalicAngle: 0
UnderlinePosition: -100
UnderlineWidth: 50
Ascent: 800
Descent: 200
LayerCount: 2
Layer: 0 0 "Arri+AOgA-re"  1
Layer: 1 0 "Avant"  0
NeedsXUIDChange: 1
XUID: [1021 112 18547 1081]
FSType: 0
OS2Version: 0
OS2_WeightWidthSlopeOnly: 0
OS2_UseTypoMetrics: 1
CreationTime: 1312203085
ModificationTime: 1369079666
OS2TypoAscent: 0
OS2TypoAOffset: 1
OS2TypoDescent: 0
OS2TypoDOffset: 1
OS2TypoLinegap: 90
OS2WinAscent: 0
OS2WinAOffset: 1
OS2WinDescent: 0
OS2WinDOffset: 1
HheadAscent: 0
HheadAOffset: 1
HheadDescent: 0
HheadDOffset: 1
MarkAttachClasses: 1
DEI: 91125
Encoding: UnicodeBmp
UnicodeInterp: none
NameList: Adobe Glyph List
DisplaySize: -24
AntiAlias: 1
FitToEm: 1
WinInfo: 54 54 23
BeginChars: 65536 446

StartChar: A
Encoding: 65 65 0
Width: 788
VWidth: 0
Flags: W
HStem: 0 21G<24.3027 137.195 650.477 763.318> 0 21G<24.3027 137.195 650.477 763.318> 707.137 44.3262<142.044 343.07 444.503 647.801> 757.38 44.375<113.005 676.816>
LayerCount: 2
Fore
SplineSet
113.005 757.38 m 1x30
 92.6523 792.619 l 1
 87.374 801.755 l 1
 702.445 801.755 l 1
 696.648 791.697 l 1
 676.816 757.38 l 1
 113.005 757.38 l 1x30
714.635 0 m 1xb0
 558.84 345.627 l 1
 555.573 338.48 l 1
 708.176 0 l 1
 659.493 0 l 1
 531.055 284.898 l 1
 394.688 -13.1582 l 1
 257.469 286.768 l 1
 128.178 0 l 1
 79.4932 0 l 1
 232.926 340.373 l 1
 229.659 347.521 l 1
 72.9863 0 l 1
 24.3027 0 l 1
 343.07 707.064 l 1
 142.044 707.088 l 1
 116.413 751.463 l 1
 673.432 751.463 l 1
 647.801 707.088 l 1
 444.503 707.137 l 1
 763.318 0 l 1
 714.635 0 l 1xb0
534.579 399.326 m 1
 535.503 401.339 l 1
 533.258 402.356 l 1
 393.812 711.632 l 1
 253.943 401.386 l 1
 253.848 401.339 l 1
 253.87 401.268 l 1
 257.137 394.121 l 1
 281.654 340.516 l 1
 394.663 93.5303 l 1
 506.797 338.621 l 1
 519.268 365.862 l 1
 534.579 399.326 l 1
260.354 401.244 m 1
 393.811 697.219 l 1
 528.094 399.35 l 1
 508.641 356.846 l 1
 394.661 107.754 l 1
 284.87 347.663 l 1
 282.768 352.254 l 1
 275.264 368.632 l 1
 260.354 401.244 l 1
394.661 214.395 m 1
 479.342 399.422 l 1
 393.786 589.204 l 1
 309.083 401.339 l 1
 394.661 214.395 l 1
EndSplineSet
Validated: 1
EndChar

StartChar: a
Encoding: 97 97 1
Width: 787
VWidth: 0
Flags: W
HStem: -0.0537109 21G<24 136.866 650.362 763.229> 229.607 44.375<251.39 535.839> 279.898 44.375<274.062 513.166> 707.344 44.3262<141.859 342.884 444.295 647.615> 757.587 44.375<112.797 676.631>
LayerCount: 2
Fore
SplineSet
112.797 757.587 m 5
 92.4678 792.826 l 5
 87.1895 801.962 l 5
 702.264 801.962 l 5
 696.464 791.904 l 5
 676.631 757.587 l 5
 112.797 757.587 l 5
647.615 707.295 m 5
 444.295 707.344 l 5
 763.229 -0.0537109 l 5
 714.57 -0.0537109 l 5
 393.602 711.792 l 5
 72.6816 -0.0537109 l 5
 24 -0.0537109 l 5
 342.884 707.271 l 5
 141.859 707.295 l 5
 116.228 751.67 l 5
 673.224 751.67 l 5
 647.615 707.295 l 5
79.166 -0.0537109 m 5
 393.602 697.426 l 5
 708.062 -0.0537109 l 5
 659.379 -0.0537109 l 5
 555.837 229.607 l 5
 231.391 229.607 l 5
 127.85 -0.0537109 l 5
 79.166 -0.0537109 l 5
535.839 273.982 m 5
 533.165 279.898 l 5
 254.062 279.898 l 5
 251.39 273.982 l 5
 535.839 273.982 l 5
274.062 324.273 m 5
 513.166 324.273 l 5
 393.602 589.435 l 5
 274.062 324.273 l 5
EndSplineSet
Validated: 1
EndChar

StartChar: B
Encoding: 66 66 2
Width: 658
VWidth: 0
Flags: W
HStem: -0.0185547 44.375<179.497 562.755> 50.2734 44.375<229.788 512.462> 528.292 44.375<287.369 512.462> 578.584 44.375<258.331 562.755> 704.372 44.375<79.6465 135.122 179.497 185.413> 754.664 44.375<50.6074 259.229>
VStem: 135.122 44.375<44.3564 704.372> 185.413 44.375<94.6484 704.372> 512.462 44.375<94.6484 528.292> 562.755 44.375<44.3564 578.584>
LayerCount: 2
Fore
SplineSet
232.77 622.959 m 1
 607.13 622.959 l 1
 607.13 -0.0185547 l 1
 135.122 -0.0185547 l 1
 135.122 704.372 l 1
 79.6465 704.372 l 1
 54.0391 748.747 l 1
 255.821 748.747 l 1
 229.788 704.372 l 1
 229.788 94.6484 l 1
 512.462 94.6484 l 1
 512.462 528.292 l 1
 287.369 528.292 l 1
 267.039 563.484 l 1
 261.738 572.667 l 1
 556.837 572.667 l 1
 556.837 50.2734 l 1
 185.413 50.2734 l 1
 185.413 704.372 l 1
 179.497 704.372 l 1
 179.497 44.3564 l 1
 562.755 44.3564 l 1
 562.755 578.584 l 1
 258.331 578.584 l 1
 232.77 622.865 l 1
 232.77 622.959 l 1
284.837 799.039 m 1
 259.229 754.664 l 1
 50.6074 754.664 l 1
 25 799.039 l 1
 284.837 799.039 l 1
EndSplineSet
Validated: 1
EndChar

StartChar: C
Encoding: 67 67 3
Width: 533
VWidth: 0
Flags: W
HStem: -0.0947266 44.375<94.375 482.628> 50.1953 44.375<144.666 453.588> 703.372 44.375<144.666 415.461> 753.664 44.375<103.394 444.5>
VStem: 50 44.375<44.2803 705.549> 100.291 44.375<94.5703 703.372>
LayerCount: 2
Fore
SplineSet
482.628 44.2803 m 1
 488.426 34.2207 l 1
 508.259 -0.0947266 l 1
 50 -0.0947266 l 1
 50 705.549 l 1
 83.6074 763.77 l 1
 103.394 798.039 l 1
 470.131 798.039 l 1
 444.5 753.664 l 1
 94.375 753.664 l 1
 94.375 44.2803 l 1
 482.628 44.2803 l 1
144.666 94.5703 m 1
 453.588 94.5703 l 1
 479.195 50.1953 l 1
 100.291 50.1953 l 1
 100.291 747.747 l 1
 441.093 747.747 l 1
 435.791 738.611 l 1
 415.461 703.372 l 1
 144.666 703.372 l 1
 144.666 94.5703 l 1
EndSplineSet
Validated: 1
EndChar

StartChar: D
Encoding: 68 68 4
Width: 682
VWidth: 0
Flags: W
HStem: -0.0185547 44.375<204.749 588.031> 50.2734 44.375<255.04 537.738> 704.372 44.375<79.6475 537.738> 754.664 44.375<50.6074 588.031>
VStem: 160.374 44.375<44.3564 621.445> 210.665 44.375<94.6484 650.482> 537.738 44.375<94.6484 704.372> 588.031 44.375<44.3564 754.664>
LayerCount: 2
Fore
SplineSet
25 799.039 m 1
 632.406 799.039 l 1
 632.406 -0.0185547 l 1
 160.374 -0.0185547 l 1
 160.374 621.445 l 1
 169.485 626.698 l 1
 204.749 647.052 l 1
 204.749 44.3564 l 1
 588.031 44.3564 l 1
 588.031 754.664 l 1
 50.6074 754.664 l 1
 30.8232 788.981 l 1
 25 799.039 l 1
210.665 50.2734 m 1
 210.665 650.482 l 1
 255.04 676.092 l 1
 255.04 94.6484 l 1
 537.738 94.6484 l 1
 537.738 704.372 l 1
 79.6475 704.372 l 1
 54.0391 748.747 l 1
 582.113 748.747 l 1
 582.113 50.2734 l 1
 210.665 50.2734 l 1
EndSplineSet
Validated: 1
EndChar

StartChar: E
Encoding: 69 69 5
Width: 533
VWidth: 0
Flags: W
HStem: -0.0185547 44.375<94.375 482.627> 50.2734 44.375<144.667 453.588> 427.662 44.375<144.667 257.557> 477.953 44.375<144.667 286.596> 704.372 44.375<144.667 417.307> 754.664 44.375<94.375 446.346>
VStem: 50 44.375<44.3564 754.664> 100.292 44.375<94.6484 427.662 472.037 477.953 522.328 704.372>
LayerCount: 2
Fore
SplineSet
488.425 34.2988 m 1
 508.233 -0.0185547 l 1
 50 -0.0185547 l 1
 50 799.039 l 1
 471.977 799.039 l 1
 446.346 754.664 l 1
 94.375 754.664 l 1
 94.375 44.3564 l 1
 482.627 44.3564 l 1
 488.425 34.2988 l 1
417.307 704.372 m 1
 144.667 704.372 l 1
 144.667 522.328 l 1
 312.203 522.328 l 1
 286.596 477.953 l 1
 144.667 477.953 l 1
 144.667 472.037 l 1
 283.188 472.037 l 1
 257.557 427.662 l 1
 144.667 427.662 l 1
 144.667 94.6484 l 1
 453.588 94.6484 l 1
 479.194 50.2734 l 1
 100.292 50.2734 l 1
 100.292 748.747 l 1
 442.938 748.747 l 1
 417.307 704.372 l 1
EndSplineSet
Validated: 1
EndChar

StartChar: F
Encoding: 70 70 6
Width: 473
VWidth: 0
Flags: W
HStem: 0 21G<50 94.375 100.291 144.666> 0 21G<50 94.375 100.291 144.666> 229.4 44.375<144.666 397.64> 279.691 44.375<144.666 368.6> 707.372 44.375<144.666 417.755> 757.664 44.375<94.375 446.796>
VStem: 50 44.375<0 757.664> 100.291 44.375<0 229.4 273.775 279.691 324.066 707.372>
LayerCount: 2
Fore
SplineSet
50 802.039 m 1xbf
 472.427 802.039 l 1
 446.796 757.664 l 1
 94.375 757.664 l 1
 94.375 0 l 1
 50 0 l 1
 50 802.039 l 1xbf
100.291 0 m 1
 100.291 751.747 l 1
 443.387 751.747 l 1
 438.109 742.611 l 1
 417.755 707.372 l 1
 144.666 707.372 l 1
 144.666 324.066 l 1
 368.6 324.066 l 1
 388.931 288.851 l 1
 394.207 279.691 l 1
 144.666 279.691 l 1
 144.666 273.775 l 1
 397.64 273.775 l 1
 423.246 229.4 l 1
 144.666 229.4 l 1
 144.666 0 l 1
 100.291 0 l 1
EndSplineSet
Validated: 1
EndChar

StartChar: G
Encoding: 71 71 7
Width: 526
VWidth: 0
Flags: W
HStem: 0 21G<247.38 291.755 297.674 342.049> 0 21G<247.38 291.755 297.674 342.049> 229.4 44.375<126.965 247.38> 279.691 44.375<126.894 247.38> 707.372 44.375<85.7607 247.38 291.755 297.674 342.049 470.629> 757.664 44.375<114.776 499.669>
VStem: 247.38 44.375<0 229.4 273.775 279.691 324.066 707.372> 297.674 44.375<0 707.372>
LayerCount: 2
Fore
SplineSet
60.1318 707.372 m 1xbf
 85.7607 751.747 l 1
 496.236 751.747 l 1
 470.629 707.372 l 1
 342.049 707.372 l 1
 342.049 0 l 1
 297.674 0 l 1
 297.674 707.372 l 1
 291.755 707.372 l 1
 291.755 0 l 1
 247.38 0 l 1
 247.38 229.4 l 1
 126.965 229.4 l 1
 50.0957 273.775 l 1
 247.38 273.775 l 1
 247.38 279.691 l 1
 50 279.691 l 1
 126.894 324.066 l 1
 247.38 324.066 l 1
 247.38 707.372 l 1
 60.1318 707.372 l 1xbf
114.776 802.039 m 1
 525.275 802.039 l 1
 499.669 757.664 l 1
 89.1699 757.664 l 1
 114.776 802.039 l 1
EndSplineSet
Validated: 1
EndChar

StartChar: z
Encoding: 122 122 8
Width: 742
VWidth: 0
Flags: W
HStem: 0.100586 44.375<109.987 684.236> 50.3926 44.375<206.287 646.227> 704.491 44.375<172.326 515.562> 754.783 44.375<210.333 611.887>
LayerCount: 2
Fore
SplineSet
109.987 44.4756 m 1
 684.236 44.4756 l 1
 717.795 0.100586 l 1
 25 0.100586 l 1
 515.562 704.491 l 1
 138.766 704.491 l 1
 146.055 714.123 l 1
 172.326 748.866 l 1
 600.551 748.866 l 1
 109.987 44.4756 l 1
611.887 754.783 m 1
 176.798 754.783 l 1
 210.333 799.158 l 1
 696.85 799.158 l 1
 206.287 94.7676 l 1
 646.227 94.7676 l 1
 679.785 50.3926 l 1
 121.301 50.3926 l 1
 611.887 754.783 l 1
EndSplineSet
Validated: 1
EndChar

StartChar: g
Encoding: 103 103 9
Width: 657
VWidth: 0
Flags: W
HStem: 0.339844 44.375<180.055 563.312> 50.6299 44.375<230.346 513.021> 173.413 44.375<367.636 513.021> 223.705 44.375<338.645 563.312> 704.754 44.375<54.9531 513.021> 755.046 44.375<25.9121 563.312>
VStem: 135.68 44.375<44.7148 621.826> 185.971 44.375<95.0049 650.864> 513.021 44.375<95.0049 173.413 475.377 704.754> 563.312 44.375<44.7148 223.705 475.377 755.046>
LayerCount: 2
Fore
SplineSet
513.021 475.377 m 1
 513.021 704.754 l 1
 54.9531 704.754 l 1
 29.3203 749.129 l 1
 557.396 749.129 l 1
 557.396 475.377 l 1
 513.021 475.377 l 1
0.304688 799.421 m 1
 607.688 799.421 l 1
 607.688 475.377 l 1
 563.312 475.377 l 1
 563.312 755.046 l 1
 25.9121 755.046 l 1
 6.12793 789.338 l 1
 0.304688 799.421 l 1
185.971 650.864 m 1
 230.346 676.472 l 1
 230.346 95.0049 l 1
 513.021 95.0049 l 1
 513.021 173.413 l 1
 367.636 173.413 l 1
 342.029 217.788 l 1
 557.396 217.788 l 1
 557.396 50.6299 l 1
 185.971 50.6299 l 1
 185.971 650.864 l 1
331.592 235.917 m 1
 313.014 268.08 l 1
 607.688 268.08 l 1
 607.688 0.339844 l 1
 135.68 0.339844 l 1
 135.68 621.826 l 1
 144.768 627.079 l 1
 180.055 647.434 l 1
 180.055 44.7148 l 1
 563.312 44.7148 l 1
 563.312 223.705 l 1
 338.645 223.705 l 1
 331.592 235.917 l 1
EndSplineSet
Validated: 1
EndChar

StartChar: H
Encoding: 72 72 10
Width: 601
VWidth: 0
Flags: W
HStem: -0.556641 21G<79.834 124.209 130.127 174.502 457.198 501.573 507.492 551.867> -0.556641 21G<79.834 124.209 130.127 174.502 457.198 501.573 507.492 551.867> 529.292 44.375<174.502 457.198> 579.584 44.375<174.502 507.492> 755.664 44.375<50.6074 203.328>
VStem: 79.834 44.375<-0.556641 705.372> 130.127 44.375<-0.556641 529.292 573.667 579.584 623.959 705.372> 457.198 44.375<-0.556641 529.292> 507.492 44.375<-0.556641 579.584>
LayerCount: 2
Fore
SplineSet
174.502 623.959 m 1xbf80
 551.867 623.959 l 1
 551.867 -0.556641 l 1
 507.492 -0.556641 l 1
 507.492 579.584 l 1
 174.502 579.584 l 1
 174.502 573.667 l 1
 501.573 573.667 l 1
 501.573 -0.556641 l 1
 457.198 -0.556641 l 1
 457.198 529.292 l 1
 174.502 529.292 l 1
 174.502 -0.556641 l 1
 130.127 -0.556641 l 1
 130.127 705.372 l 1
 124.209 705.372 l 1
 124.209 -0.556641 l 1
 79.834 -0.556641 l 1
 79.834 705.372 l 1
 79.6445 705.372 l 1
 54.0156 749.747 l 1
 199.896 749.747 l 1
 174.265 705.372 l 1
 174.502 705.372 l 1
 174.502 623.959 l 1xbf80
228.935 800.039 m 1
 203.328 755.664 l 1
 50.6074 755.664 l 1
 25 800.039 l 1
 228.935 800.039 l 1
EndSplineSet
Validated: 1
EndChar

StartChar: I
Encoding: 73 73 11
Width: 225
VWidth: 0
Flags: W
HStem: 0.0449219 21G<79.623 123.998 129.915 174.29> 756.266 44.375<50.6084 129.915>
VStem: 79.623 44.375<0.0449219 705.974> 129.915 44.375<0.0449219 756.266>
LayerCount: 2
Fore
SplineSet
25 800.641 m 1
 174.29 800.641 l 1
 174.29 0.0449219 l 1
 129.915 0.0449219 l 1
 129.915 756.266 l 1
 50.6084 756.266 l 1
 25 800.641 l 1
79.623 705.974 m 1
 54.0156 750.349 l 1
 123.998 750.349 l 1
 123.998 0.0449219 l 1
 79.623 0.0449219 l 1
 79.623 705.974 l 1
EndSplineSet
Validated: 1
EndChar

StartChar: J
Encoding: 74 74 12
Width: 219
VWidth: 0
Flags: W
HStem: 754.808 44.375<44.9199 124.25>
VStem: 73.959 44.375<-35.9786 704.516> 124.154 44.4707<-42.4553 754.808>
LayerCount: 2
Fore
SplineSet
73.959 704.516 m 1
 48.3516 748.891 l 1
 118.334 748.891 l 1
 118.334 -14.8555 l 1
 42.9307 -304.016 l 1
 0 -292.82 l 1
 73.959 -9.12793 l 1
 73.959 704.516 l 1
19.3115 799.183 m 1
 168.625 799.183 l 1
 168.625 -21.293 l 1
 91.6143 -316.724 l 1
 45.7959 -304.772 l 1
 48.6826 -305.506 l 1
 124.154 -15.9678 l 1
 124.25 754.808 l 1
 44.9199 754.808 l 1
 19.3115 799.183 l 1
EndSplineSet
Validated: 1
EndChar

StartChar: K
Encoding: 75 75 13
Width: 630
VWidth: 0
Flags: W
HStem: -1.4707 44.375<451.52 559.605> 429.264 44.375<174.361 323.389> 479.555 44.375<174.361 325.33> 756.266 44.375<50.6309 129.986 394.459 509.385>
VStem: 79.6934 44.375<0.0683594 705.974> 129.986 44.375<0.0683594 429.264 473.639 479.555 523.93 756.266>
LayerCount: 2
Fore
SplineSet
478.973 96.1777 m 1
 323.389 429.264 l 1
 174.361 429.264 l 1
 174.361 0.0683594 l 1
 129.986 0.0683594 l 1
 129.986 756.266 l 1
 50.6309 756.266 l 1
 25 800.641 l 1
 174.361 800.641 l 1
 174.361 523.93 l 1
 325.33 523.93 l 1
 424.658 705.974 l 1
 423.522 705.974 l 1
 397.892 750.349 l 1
 499.398 750.349 l 1
 351.718 479.555 l 1
 174.361 479.555 l 1
 174.361 473.639 l 1
 351.575 473.639 l 1
 550.258 48.8213 l 1
 454.952 48.8213 l 1
 480.583 93.1963 l 1
 480.346 93.1963 l 1
 478.998 96.1309 l 1
 479.021 96.1777 l 1
 478.973 96.1777 l 1
79.6699 705.974 m 1
 54.0381 750.349 l 1
 124.068 750.349 l 1
 124.068 0.0683594 l 1
 79.6934 0.0683594 l 1
 79.6934 705.974 l 1
 79.6699 705.974 l 1
406.436 474.916 m 1
 629.518 -1.4707 l 1
 425.913 -1.4707 l 1
 444.657 31.001 l 1
 451.52 42.9043 l 1
 559.605 42.9043 l 1
 356.759 476.525 l 1
 506.971 751.911 l 1
 509.385 756.266 l 1
 394.459 756.266 l 1
 386.129 770.75 l 1
 368.828 800.641 l 1
 584.125 800.641 l 1
 406.436 474.916 l 1
EndSplineSet
Validated: 1
EndChar

StartChar: L
Encoding: 76 76 14
Width: 516
VWidth: 0
Flags: W
HStem: 0.000976562 44.375<123.996 466.288> 50.293 44.375<174.288 437.249> 754.684 44.375<50.6064 129.913>
VStem: 79.6211 44.375<44.376 704.392> 129.913 44.375<94.668 754.684>
LayerCount: 2
Fore
SplineSet
466.288 44.376 m 1
 472.087 34.3184 l 1
 491.896 0.000976562 l 1
 79.6211 0.000976562 l 1
 79.6211 704.392 l 1
 54.0146 748.767 l 1
 123.996 748.767 l 1
 123.996 44.376 l 1
 466.288 44.376 l 1
174.288 94.668 m 1
 437.249 94.668 l 1
 462.88 50.293 l 1
 129.913 50.293 l 1
 129.913 754.684 l 1
 50.6064 754.684 l 1
 25 799.059 l 1
 174.288 799.059 l 1
 174.288 94.668 l 1
EndSplineSet
Validated: 1
EndChar

StartChar: M
Encoding: 77 77 15
Width: 928
VWidth: 0
Flags: W
HStem: 0.00390625 21G<79.6465 124.021 129.938 174.312 431.404 475.779 481.719 526.094 783.635 828.01 833.926 878.301> 0.00390625 21G<79.6465 124.021 129.938 174.312 431.404 475.779 481.719 526.094 783.635 828.01 833.926 878.301> 251.605 20.707<126.979 129.938 174.312 431.404 526.094 783.635> 278.23 20.707<126.979 129.938 174.312 431.404 526.094 783.635> 553.496 20.71<174.312 431.404 526.094 783.635> 580.121 20.7324<174.312 431.404 526.094 783.635> 756.225 44.375<50.6074 129.938 402.436 481.719 754.596 833.926>
VStem: 79.6465 44.375<0.00390625 705.935> 129.938 44.373<0.00390625 251.605 272.312 278.23 298.938 553.496 574.206 580.121 600.854 756.225> 431.404 44.375<0.00390625 251.605 272.312 278.23 298.938 553.496 574.206 580.121 600.854 705.935> 481.719 44.375<0.00390625 251.605 272.312 278.23 298.938 553.496 574.206 580.121 600.854 756.225> 783.635 44.375<0.00390625 251.605 272.312 278.23 298.938 553.496 574.206 580.121 600.854 705.935> 833.926 44.375<0.00390625 756.225>
LayerCount: 2
Fore
SplineSet
728.965 800.6 m 1xbff8
 878.301 800.6 l 1
 878.301 0.00390625 l 1
 833.926 0.00390625 l 1
 833.926 756.225 l 1
 754.596 756.225 l 1
 728.965 800.6 l 1xbff8
79.6699 705.935 m 1
 54.0391 750.31 l 1
 124.021 750.31 l 1
 124.021 0.00390625 l 1
 79.6465 0.00390625 l 1
 79.6465 705.935 l 1
 79.6699 705.935 l 1
783.635 705.935 m 1
 758.028 750.31 l 1
 828.01 750.31 l 1
 828.01 0.00390625 l 1
 783.635 0.00390625 l 1
 783.635 251.605 l 1
 526.094 251.605 l 1
 526.094 0.00390625 l 1
 481.719 0.00390625 l 1
 481.719 756.225 l 1
 402.436 756.225 l 1
 381.728 792.104 l 1
 376.829 800.6 l 1
 526.094 800.6 l 1
 526.094 600.854 l 1
 783.635 600.854 l 1
 783.635 705.935 l 1
783.635 272.312 m 1
 783.635 278.23 l 1
 526.094 278.23 l 1
 526.094 272.312 l 1
 783.635 272.312 l 1
783.635 298.938 m 1
 783.635 553.496 l 1
 526.094 553.496 l 1
 526.094 298.938 l 1
 783.635 298.938 l 1
783.635 574.206 m 1
 783.635 580.121 l 1
 526.094 580.121 l 1
 526.094 574.206 l 1
 783.635 574.206 l 1
431.499 705.935 m 1
 405.845 750.31 l 1
 475.779 750.31 l 1
 475.779 0.00390625 l 1
 431.404 0.00390625 l 1
 431.404 251.605 l 1
 174.312 251.605 l 1
 174.312 0.00390625 l 1
 129.938 0.00390625 l 1
 129.938 251.629 l 1
 126.979 251.629 l 1
 126.979 272.336 l 1
 129.938 272.336 l 1
 129.938 278.254 l 1
 126.979 278.254 l 1
 126.979 298.961 l 1
 129.938 298.961 l 1
 129.938 756.225 l 1
 50.6074 756.225 l 1
 25 800.6 l 1
 174.312 800.6 l 1
 174.312 600.854 l 1
 431.428 600.854 l 1
 431.428 705.935 l 1
 431.499 705.935 l 1
431.428 272.312 m 1
 431.404 272.312 l 1
 431.404 278.23 l 1
 174.312 278.23 l 1
 174.312 272.312 l 1
 431.428 272.312 l 1
431.428 298.938 m 1
 431.404 298.938 l 1
 431.404 553.496 l 1
 174.312 553.496 l 1
 174.312 298.938 l 1
 431.428 298.938 l 1
431.428 574.206 m 1
 431.404 574.206 l 1
 431.404 580.121 l 1
 174.312 580.121 l 1
 174.312 574.206 l 1
 431.428 574.206 l 1
EndSplineSet
Validated: 5
EndChar

StartChar: m
Encoding: 109 109 16
Width: 1005
VWidth: 0
Flags: W
HStem: 0.249023 21G<154.765 199.14 205.057 249.432 836.294 880.669 886.586 930.961> 0.249023 21G<154.765 199.14 205.057 249.432 836.294 880.669 886.586 930.961> 755.972 44.375<125.654 205.057 807.303 886.586>
VStem: 154.765 44.375<0.249023 556.912 643.081 705.681> 205.057 44.375<0.249023 477.557 654.395 755.972> 836.294 44.375<0.249023 467.429 657.472 705.681> 886.586 44.375<0.249023 554.971 641.638 755.972>
LayerCount: 2
Fore
SplineSet
205.057 755.972 m 1x3e
 125.654 755.972 l 1
 100 800.347 l 1
 249.432 800.347 l 1
 249.432 654.395 l 1
 556.365 170.174 l 1
 836.294 657.472 l 1
 836.294 705.681 l 1
 836.341 705.681 l 1
 810.687 750.056 l 1
 880.669 750.056 l 1
 880.669 645.07 l 1
 880.384 645.188 l 1
 558.211 84.3604 l 1
 205.057 646.821 l 1
 205.057 755.972 l 1x3e
781.647 800.347 m 1
 930.961 800.347 l 1
 930.961 0.249023 l 1
 886.586 0.249023 l 1
 886.586 554.971 l 1
 880.669 544.652 l 1
 880.669 0.249023 l 1
 836.294 0.249023 l 1
 836.294 467.429 l 1
 560.341 -12.9102 l 1
 249.432 477.557 l 1
 249.432 0.249023 l 1
 205.057 0.249023 l 1
 205.057 547.562 l 1
 199.14 556.912 l 1
 199.14 0.249023 l 1
 154.765 0.249023 l 1xbe
 154.765 705.681 l 1
 154.67 705.681 l 1
 129.016 750.056 l 1
 199.14 750.056 l 1
 199.14 643.081 l 1
 555.844 77.0469 l 1
 558.448 72.9043 l 1
 886.586 641.638 l 1
 886.586 755.972 l 1
 807.303 755.972 l 1
 781.647 800.347 l 1
EndSplineSet
Validated: 1
EndChar

StartChar: N
Encoding: 78 78 17
Width: 601
VWidth: 0
Flags: W
HStem: -0.105469 21G<79.6934 124.068 129.985 174.36> -0.105469 21G<79.6934 124.068 129.985 174.36> 756.115 44.375<50.6074 129.985 427.76 507.327>
VStem: 79.6934 44.375<-0.105469 705.823> 129.985 44.375<-0.105469 153.396 201.109 207.499 255.188 756.115> 457.035 44.375<143.527 705.823> 507.327 44.375<69.5928 756.115>
LayerCount: 2
Fore
SplineSet
79.6465 705.823 m 1xbe
 54.0391 750.198 l 1
 124.068 750.198 l 1
 124.068 -0.105469 l 1
 79.6934 -0.105469 l 1
 79.6934 705.823 l 1
 79.6465 705.823 l 1xbe
402.152 800.49 m 1
 551.702 800.49 l 1
 551.702 4.34375 l 1
 174.36 153.396 l 1
 174.36 -0.105469 l 1
 129.985 -0.105469 l 1
 129.985 756.115 l 1
 50.6074 756.115 l 1
 25 800.49 l 1
 174.36 800.49 l 1
 174.36 255.188 l 1
 457.035 143.527 l 1
 457.035 705.823 l 1
 456.822 705.823 l 1
 431.167 750.198 l 1
 501.41 750.198 l 1
 501.41 78.2793 l 1
 174.36 207.499 l 1
 174.36 201.109 l 1
 507.327 69.5928 l 1
 507.327 756.115 l 1
 427.76 756.115 l 1
 410.245 786.432 l 1
 402.152 800.49 l 1
EndSplineSet
Validated: 1
EndChar

StartChar: n
Encoding: 110 110 18
Width: 701
VWidth: 0
Flags: W
HStem: -0 21G<154.623 198.998 204.915 249.29> -0 21G<154.623 198.998 204.915 249.29> 756.221 44.375<125.607 204.915 502.926 582.255>
VStem: 154.623 44.375<0 705.931> 204.915 44.375<0 485.476 559.434 569.303 643.236 756.221> 531.965 44.375<266.345 705.931> 582.255 44.375<115.47 756.221>
LayerCount: 2
Fore
SplineSet
477.318 800.596 m 5xbe
 626.63 800.596 l 5
 626.63 -17.6553 l 5
 249.29 485.476 l 5
 249.29 -0 l 5
 204.915 -0 l 5
 204.915 756.221 l 5
 125.607 756.221 l 5
 100 800.596 l 5
 249.29 800.596 l 5
 249.29 643.236 l 5
 531.965 266.345 l 5
 531.965 705.931 l 5
 531.988 705.931 l 5
 506.334 750.306 l 5
 576.34 750.306 l 5
 576.34 133.22 l 5
 249.29 569.303 l 5
 249.29 559.434 l 5
 582.255 115.47 l 5
 582.255 756.221 l 5
 502.926 756.221 l 5
 485.437 786.516 l 5
 477.318 800.596 l 5xbe
154.623 705.931 m 5
 129.016 750.306 l 5
 198.998 750.306 l 5
 198.998 -0 l 5
 154.623 -0 l 5
 154.623 705.931 l 5
EndSplineSet
Validated: 1
EndChar

StartChar: O
Encoding: 79 79 19
Width: 664
VWidth: 0
Flags: W
HStem: 0.0732422 44.375<50.6074 330.867 332.24 614.086> 50.3652 44.375<79.623 282.871 386.247 585.047> 705.388 44.375<94.2012 280.576 389.017 570.16> 755.68 44.375<65.1152 599.2>
LayerCount: 2
Fore
SplineSet
516.91 425.554 m 1
 334.135 104.871 l 1
 171.568 425.577 l 1
 334.087 696.915 l 1
 516.91 425.554 l 1
336.312 614.224 m 1
 222.237 423.778 l 1
 336.405 198.495 l 1
 464.726 423.612 l 1
 336.312 614.224 l 1
633.896 10.1094 m 1
 639.693 0.0732422 l 1
 332.24 0.0732422 l 1
 331.506 -1.22754 l 1
 330.867 0.0732422 l 1
 25 0.0732422 l 1
 30.2764 9.18555 l 1
 50.6074 44.4482 l 1
 614.086 44.4482 l 1
 633.896 10.1094 l 1
599.2 755.68 m 1
 65.1152 755.68 l 1
 39.5078 800.055 l 1
 624.807 800.055 l 1
 599.2 755.68 l 1
54.0137 50.3652 m 1
 79.623 94.7402 l 1
 282.871 94.7402 l 1
 114.152 427.612 l 1
 280.576 705.388 l 1
 94.2012 705.388 l 1
 68.5459 749.763 l 1
 595.77 749.763 l 1
 570.16 705.388 l 1
 389.017 705.388 l 1
 576.078 427.777 l 1
 386.247 94.7402 l 1
 585.047 94.7402 l 1
 610.654 50.3652 l 1
 54.0137 50.3652 l 1
164.822 425.814 m 1
 331.318 97.3203 l 1
 333.803 92.4209 l 1
 522.947 424.251 l 1
 523.869 425.838 l 1
 333.803 707.92 l 1
 165.65 427.234 l 1
 164.822 425.814 l 1
EndSplineSet
Validated: 1
EndChar

StartChar: P
Encoding: 80 80 20
Width: 601
VWidth: 0
Flags: W
HStem: 0.223633 44.375<50.6074 130.459> 176.28 44.375<203.896 507.801> 226.572 44.375<232.935 457.508> 704.591 44.375<174.834 457.508> 754.883 44.375<124.542 507.801>
VStem: 80.167 44.375<94.8906 754.883> 130.459 44.375<44.5986 704.591> 457.508 44.375<270.947 704.591> 507.801 44.375<220.655 754.883>
LayerCount: 2
Fore
SplineSet
207.304 226.572 m 1
 225.978 258.9 l 1
 232.935 270.947 l 1
 457.508 270.947 l 1
 457.508 704.591 l 1
 174.834 704.591 l 1
 174.834 0.223633 l 1
 25 0.223633 l 1
 50.6074 44.5986 l 1
 130.459 44.5986 l 1
 130.459 748.966 l 1
 501.883 748.966 l 1
 501.883 226.572 l 1
 207.304 226.572 l 1
552.176 799.258 m 1
 552.176 176.28 l 1
 178.288 176.28 l 1
 203.896 220.655 l 1
 507.801 220.655 l 1
 507.801 754.883 l 1
 124.542 754.883 l 1
 124.542 50.5156 l 1
 54.0381 50.5156 l 1
 79.6465 94.8906 l 1
 80.167 94.8906 l 1
 80.167 799.258 l 1
 552.176 799.258 l 1
EndSplineSet
Validated: 1
EndChar

StartChar: Q
Encoding: 81 81 21
Width: 572
VWidth: 0
Flags: W
HStem: 0.124023 44.375<397.806 477.609> 176.181 44.375<94.375 427.318> 226.473 44.375<144.667 427.318> 704.491 44.375<144.667 427.318> 754.783 44.375<94.375 477.609>
VStem: 50 44.375<220.556 754.783> 100.292 44.375<270.848 704.491> 427.318 44.375<94.791 176.181 270.848 704.491> 477.609 44.375<44.499 754.783>
LayerCount: 2
Fore
SplineSet
100.292 226.473 m 1
 100.292 748.866 l 1
 471.693 748.866 l 1
 471.693 226.473 l 1
 100.292 226.473 l 1
144.667 704.491 m 1
 144.667 270.848 l 1
 427.318 270.848 l 1
 427.318 704.491 l 1
 144.667 704.491 l 1
50 799.158 m 1
 521.984 799.158 l 1
 521.984 0.124023 l 1
 372.199 0.124023 l 1
 397.806 44.499 l 1
 477.609 44.499 l 1
 477.609 754.783 l 1
 94.375 754.783 l 1
 94.375 220.556 l 1
 471.693 220.556 l 1
 471.693 50.416 l 1
 401.238 50.416 l 1
 426.845 94.791 l 1
 427.318 94.791 l 1
 427.318 176.181 l 1
 50 176.181 l 1
 50 799.158 l 1
EndSplineSet
Validated: 1
EndChar

StartChar: R
Encoding: 82 82 22
Width: 636
VWidth: 0
Flags: W
HStem: 0.100586 44.375<442.008 558.66> 352.308 44.375<174.385 324.787> 402.6 44.3516<174.385 324.976> 704.491 44.375<79.1973 79.6934 124.068 129.986 174.361 406.744> 754.783 44.375<50.3945 457.059>
VStem: 79.6934 44.375<-2.9043 704.491> 129.986 44.375<-2.9043 352.308 396.683 402.6 446.951 704.491> 406.744 44.3975<588.406 704.491> 457.059 44.375<574.939 754.783>
LayerCount: 2
Fore
SplineSet
416.377 0.100586 m 1
 422.198 10.1582 l 1
 442.008 44.4756 l 1
 558.66 44.4756 l 1
 355.719 399.641 l 1
 456.656 574.229 l 1
 457.059 574.939 l 1
 457.059 754.783 l 1
 50.3945 754.783 l 1
 25 799.158 l 1
 501.434 799.158 l 1
 501.434 563.036 l 1
 406.887 399.499 l 1
 635.104 0.100586 l 1
 416.377 0.100586 l 1
548.438 50.3926 m 1
 445.414 50.3926 l 1
 471.045 94.7676 l 1
 471.969 94.7676 l 1
 324.787 352.308 l 1
 174.361 352.308 l 1
 174.361 -2.9043 l 1
 129.986 -2.9043 l 1
 129.986 704.491 l 1
 124.068 704.491 l 1
 124.068 -2.9043 l 1
 79.6934 -2.9043 l 1
 79.6934 704.491 l 1
 79.1973 704.491 l 1
 53.8027 748.866 l 1
 451.142 748.866 l 1
 451.142 576.526 l 1
 350.582 402.6 l 1
 174.385 402.6 l 1
 174.385 396.683 l 1
 350.582 396.683 l 1
 548.438 50.3926 l 1
174.361 704.491 m 1
 174.361 446.951 l 1
 324.976 446.951 l 1
 406.744 588.406 l 1
 406.744 704.491 l 1
 174.361 704.491 l 1
EndSplineSet
Validated: 1
EndChar

StartChar: S
Encoding: 83 83 23
Width: 843
VWidth: 0
Flags: W
HStem: 0.115234 44.375<111.265 726.882> 50.4053 44.375<209.031 623.389> 704.292 44.375<264.743 573.073> 754.584 44.375<161.248 676.566>
LayerCount: 2
Fore
SplineSet
528.626 456.834 m 1
 376.378 633.057 l 1
 442.312 633.057 l 1
 523.206 540.613 l 1
 672.803 749.803 l 1
 676.566 754.584 l 1
 161.248 754.584 l 1
 714.718 50.4053 l 1
 122.767 50.4053 l 1
 318.489 324.229 l 1
 379.904 251.998 l 1
 321.447 251.998 l 1
 321.661 252.354 l 1
 318.894 248.496 l 1
 318.277 248.496 l 1
 318.56 247.999 l 1
 209.031 94.7803 l 1
 623.389 94.7803 l 1
 69.9189 798.959 l 1
 767.896 798.959 l 1
 528.626 456.834 l 1
318.062 333.79 m 1
 114.625 49.1758 l 1
 111.265 44.4902 l 1
 726.882 44.4902 l 1
 173.413 748.667 l 1
 664.402 748.667 l 1
 522.473 549.275 l 1
 451.095 633.057 l 1
 517.052 633.057 l 1
 573.073 704.292 l 1
 344.428 704.292 l 1
 264.743 704.292 l 1
 818.212 0.115234 l 1
 25 0.115234 l 1
 314.892 405.666 l 1
 446.124 251.998 l 1
 398.554 251.998 l 1
 387.667 251.998 l 1
 318.062 333.79 l 1
EndSplineSet
Validated: 1
EndChar

StartChar: T
Encoding: 84 84 24
Width: 661
VWidth: 0
Flags: W
HStem: 0.107422 21G<283.559 327.934 333.85 378.225> 0.107422 21G<283.559 327.934 333.85 378.225> 707.479 44.375<79.6465 283.559 327.934 333.85 378.225 581.973> 757.771 44.375<50.6318 611.033>
VStem: 283.559 44.375<0.107422 707.479> 333.85 44.375<0.107422 707.479>
LayerCount: 2
Fore
SplineSet
79.6465 707.479 m 1xbc
 54.0156 751.854 l 1
 607.602 751.854 l 1
 581.973 707.479 l 1
 378.225 707.479 l 1
 378.225 0.107422 l 1
 333.85 0.107422 l 1
 333.85 707.479 l 1
 327.934 707.479 l 1
 327.934 0.107422 l 1
 283.559 0.107422 l 1
 283.559 707.479 l 1
 79.6465 707.479 l 1xbc
25 802.146 m 1
 636.664 802.146 l 1
 611.033 757.771 l 1
 50.6318 757.771 l 1
 25 802.146 l 1
EndSplineSet
Validated: 1
EndChar

StartChar: U
Encoding: 85 85 25
Width: 652
VWidth: 0
Flags: W
HStem: 0.100586 44.375<124.068 557.643> 50.3926 44.375<174.359 507.351> 754.783 44.375<50.6309 129.984 477.98 557.643>
VStem: 79.6934 44.375<44.4756 704.491> 129.984 44.375<94.7676 754.783> 507.351 44.375<94.7676 704.491> 557.643 44.375<44.4756 754.783>
LayerCount: 2
Fore
SplineSet
507.351 704.491 m 1
 507.043 704.491 l 1
 481.388 748.866 l 1
 551.726 748.866 l 1
 551.726 50.3926 l 1
 129.984 50.3926 l 1
 129.984 754.783 l 1
 50.6309 754.783 l 1
 25 799.158 l 1
 174.359 799.158 l 1
 174.359 94.7676 l 1
 507.351 94.7676 l 1
 507.351 704.491 l 1
452.35 799.158 m 1
 602.018 799.158 l 1
 602.018 0.100586 l 1
 79.6934 0.100586 l 1
 79.6934 704.491 l 1
 54.0615 748.866 l 1
 124.068 748.866 l 1
 124.068 44.4756 l 1
 557.643 44.4756 l 1
 557.643 754.783 l 1
 477.98 754.783 l 1
 452.35 799.158 l 1
EndSplineSet
Validated: 5
EndChar

StartChar: V
Encoding: 86 86 26
Width: 690
VWidth: 0
Flags: W
HStem: 0.0283203 44.375<163.923 344.31 345.729 524.604> 50.3184 44.375<192.962 305.048 384.946 495.541> 753.811 44.375<89.6572 192.062 498.191 600.36>
LayerCount: 2
Fore
SplineSet
163.923 44.4033 m 1
 524.604 44.4033 l 1
 550.211 0.0283203 l 1
 345.729 0.0283203 l 1
 345.02 -1.7002 l 1
 344.31 0.0283203 l 1
 138.315 0.0283203 l 1
 163.923 44.4033 l 1
522.685 50.3184 m 1
 526.094 44.4033 l 1
 524.604 44.4033 l 1
 521.171 50.3184 l 1
 522.685 50.3184 l 1
496.938 94.9072 m 1
 495.422 94.9072 l 1
 495.541 94.6934 l 1
 497.056 94.6934 l 1
 496.938 94.9072 l 1
526.094 44.4033 m 1
 551.7 0.0283203 l 1
 550.211 0.0283203 l 1
 524.604 44.4033 l 1
 526.094 44.4033 l 1
497.056 94.6934 m 1
 522.685 50.3184 l 1
 521.171 50.3184 l 1
 495.541 94.6934 l 1
 497.056 94.6934 l 1
222.214 425.791 m 1
 98.248 747.894 l 1
 188.63 747.894 l 1
 163.022 703.519 l 1
 162.905 703.519 l 1
 263.631 441.742 l 1
 345.02 245.521 l 1
 426.812 442.854 l 1
 527.111 703.519 l 1
 527.23 703.519 l 1
 501.599 747.894 l 1
 591.769 747.894 l 1
 467.803 425.861 l 1
 345.02 129.627 l 1
 222.214 425.791 l 1
384.946 94.6934 m 1
 495.541 94.6934 l 1
 521.171 50.3184 l 1
 167.33 50.3184 l 1
 192.962 94.6934 l 1
 305.048 94.6934 l 1
 175.756 406.598 l 1
 25 798.186 l 1
 217.692 798.186 l 1
 192.062 753.811 l 1
 89.6572 753.811 l 1
 216.747 423.59 l 1
 345.02 114.195 l 1
 473.293 423.661 l 1
 600.36 753.811 l 1
 498.191 753.811 l 1
 472.561 798.186 l 1
 664.993 798.186 l 1
 514.711 407.709 l 1
 384.946 94.6934 l 1
EndSplineSet
Validated: 5
EndChar

StartChar: W
Encoding: 87 87 27
Width: 1144
VWidth: 0
Flags: W
HStem: 0.0283203 44.375<136.527 469.707 670.163 979.15> 703.519 44.375<137.898 138.042 418.374 532.896 611.28 723.697 1004.05 1004.38> 753.811 44.375<389.311 752.736>
LayerCount: 2
Fore
SplineSet
167.081 753.811 m 1
 192.712 798.186 l 1
 0.0175781 798.186 l 1
 150.751 406.598 l 1
 280.09 94.6934 l 1
 165.566 94.6934 l 1
 139.935 50.3184 l 1
 466.273 50.3184 l 1
 440.667 94.6934 l 1
 359.632 94.6934 l 1
 572.042 561.093 l 1
 784.448 94.5684 l 1
 699.202 94.5684 l 1
 673.594 50.1934 l 1
 975.75 50.1934 l 1
 950.12 94.5684 l 1
 863.377 94.5684 l 1
 1143.99 798.186 l 1
 949.36 798.186 l 1
 974.99 753.811 l 1
 1078.55 753.811 l 1
 823.854 114.385 l 1
 572.089 668.232 l 1
 319.896 114.503 l 1
 191.765 423.59 l 1
 64.6504 753.811 l 1
 167.081 753.811 l 1
197.232 425.791 m 1
 73.2666 747.894 l 1
 163.648 747.894 l 1
 138.042 703.519 l 1
 137.898 703.519 l 1
 238.649 441.742 l 1
 322.05 240.599 l 1
 532.896 703.519 l 1
 418.374 703.519 l 1
 392.741 747.894 l 1
 749.305 747.894 l 1
 723.697 703.519 l 1
 611.28 703.519 l 1
 820.802 242.611 l 1
 1004.38 703.519 l 1
 1004.05 703.519 l 1
 978.42 747.894 l 1
 1069.82 747.894 l 1
 823.476 129.437 l 1
 572.089 682.526 l 1
 320.156 129.343 l 1
 197.232 425.791 l 1
778.367 798.186 m 1
 752.736 753.811 l 1
 389.311 753.811 l 1
 363.679 798.186 l 1
 778.367 798.186 l 1
136.527 44.4033 m 1
 469.707 44.4033 l 1
 495.314 0.0283203 l 1
 110.919 0.0283203 l 1
 136.527 44.4033 l 1
670.163 44.2764 m 1
 979.15 44.2764 l 1
 1004.76 -0.0986328 l 1
 644.556 -0.0986328 l 1
 670.163 44.2764 l 1
EndSplineSet
Validated: 9
EndChar

StartChar: X
Encoding: 88 88 28
Width: 734
VWidth: 0
Flags: W
HStem: -0.0986328 44.375<90.3604 225.022 502.656 642.929> 754.584 44.375<90.0039 230.182 457.453 592.26>
LayerCount: 2
Fore
SplineSet
90.3604 44.2764 m 1
 225.022 44.2764 l 1
 258.583 -0.0986328 l 1
 5.37207 -0.0986328 l 1
 294.65 415.228 l 1
 0 798.959 l 1
 263.718 798.959 l 1
 259.363 793.185 l 1
 230.182 754.584 l 1
 90.0039 754.584 l 1
 321.253 453.45 l 1
 324.802 458.562 l 1
 102.028 748.667 l 1
 225.709 748.667 l 1
 192.174 704.292 l 1
 192.055 704.292 l 1
 351.403 496.76 l 1
 495.959 704.292 l 1
 495.462 704.292 l 1
 461.903 748.667 l 1
 580.946 748.667 l 1
 90.3604 44.2764 l 1
457.453 754.584 m 1
 428.249 793.185 l 1
 423.894 798.959 l 1
 677.246 798.959 l 1
 411.919 417.997 l 1
 732.934 -0.0986328 l 1
 469.121 -0.0986328 l 1
 502.656 44.2764 l 1
 642.929 44.2764 l 1
 385.294 379.751 l 1
 381.768 374.688 l 1
 630.907 50.1934 l 1
 507.13 50.1934 l 1
 540.642 94.5684 l 1
 540.879 94.5684 l 1
 355.143 336.441 l 1
 186.659 94.5684 l 1
 186.991 94.5684 l 1
 220.551 50.1934 l 1
 101.696 50.1934 l 1
 592.26 754.584 l 1
 457.453 754.584 l 1
EndSplineSet
Validated: 1
EndChar

StartChar: Y
Encoding: 89 89 29
Width: 601
VWidth: 0
Flags: W
HStem: 0.249023 44.375<451.402 507.729> 50.541 44.375<422.41 457.438> 176.353 44.375<124.447 457.438> 226.645 44.375<174.739 457.438> 753.488 44.375<50.6084 130.364 428.374 507.729>
VStem: 80.0723 44.375<220.728 703.196> 130.364 44.375<271.02 753.488> 457.438 44.375<94.916 176.353 220.728 226.645 271.02 703.196> 507.729 44.375<44.624 753.488>
LayerCount: 2
Fore
SplineSet
501.812 747.571 m 1
 501.812 50.541 l 1
 422.41 50.541 l 1
 402.885 84.3369 l 1
 396.805 94.916 l 1
 457.438 94.916 l 1
 457.438 176.353 l 1
 80.0723 176.353 l 1
 80.0723 703.196 l 1
 79.6465 703.196 l 1
 54.0156 747.571 l 1
 124.447 747.571 l 1
 124.447 220.728 l 1
 457.438 220.728 l 1
 457.438 226.645 l 1
 130.364 226.645 l 1
 130.364 753.488 l 1
 50.6084 753.488 l 1
 25 797.863 l 1
 174.739 797.863 l 1
 174.739 271.02 l 1
 457.438 271.02 l 1
 457.438 703.196 l 1
 431.783 747.571 l 1
 501.812 747.571 l 1
402.768 797.863 m 1
 552.104 797.863 l 1
 552.104 0.249023 l 1
 451.402 0.249023 l 1
 425.795 44.624 l 1
 507.729 44.624 l 1
 507.729 753.488 l 1
 428.374 753.488 l 1
 408.92 787.166 l 1
 402.768 797.863 l 1
EndSplineSet
Validated: 1
EndChar

StartChar: Z
Encoding: 90 90 30
Width: 742
VWidth: 0
Flags: W
HStem: 0.100586 44.375<109.987 684.236> 50.3926 44.375<206.287 646.227> 704.491 44.375<172.326 515.562> 754.783 44.375<210.333 611.887>
LayerCount: 2
Fore
SplineSet
109.987 44.4756 m 1
 684.236 44.4756 l 1
 717.795 0.100586 l 1
 25 0.100586 l 1
 515.562 704.491 l 1
 138.766 704.491 l 1
 146.055 714.123 l 1
 172.326 748.866 l 1
 600.551 748.866 l 1
 109.987 44.4756 l 1
611.887 754.783 m 1
 176.798 754.783 l 1
 210.333 799.158 l 1
 696.85 799.158 l 1
 206.287 94.7676 l 1
 646.227 94.7676 l 1
 679.785 50.3926 l 1
 121.301 50.3926 l 1
 611.887 754.783 l 1
EndSplineSet
Validated: 1
EndChar

StartChar: ampersand
Encoding: 38 38 31
Width: 999
VWidth: 0
Flags: W
HStem: 4.95801 44.375<144.701 526.754> 55.25 44.3984<194.994 497.549> 533.292 44.352<194.994 431.607> 583.561 44.398<194.994 477.645> 636.691 41.608<832.998 843.98> 657.589 20.71<543.035 832.998> 684.214 41.607<598.938 607.312> 684.214 20.71<607.312 882.771> 709.372 44.375<194.993 458.781> 759.664 44.375<144.701 487.797>
VStem: 100.326 44.375<49.333 759.664> 150.618 44.376<99.6484 533.292 577.644 583.561 627.959 709.372> 477.645 44.375<456.496 583.561>
LayerCount: 2
Fore
SplineSet
903.764 4.60254 m 6xf0f8
 899.455 6.89746 477.668 234.217 477.645 580.602 c 6
 477.645 583.561 l 5
 194.994 583.561 l 5
 194.994 577.644 l 5
 471.729 577.644 l 5
 474.143 229.365 896.711 1.62109 900.996 -0.651367 c 6
 880.238 -39.8662 l 6
 870.582 -34.7314 747.256 31.8906 631.738 147.952 c 5
 552.502 4.98145 l 5
 100.326 4.95801 l 5
 100.326 804.039 l 5
 513.404 804.039 l 5
 491.062 765.297 l 5
 487.797 759.664 l 5
 144.701 759.664 l 5
 144.701 49.333 l 5
 147.66 49.333 l 5
 526.754 49.3564 l 5
 599.74 181.629 l 6
 598.344 183.145 596.971 184.776 595.574 186.339 c 6
 523.32 55.2734 l 5
 150.618 55.25 l 5
 150.618 753.747 l 5
 484.389 753.747 l 5
 458.781 709.372 l 5
 194.993 709.372 l 5
 194.993 627.959 l 5
 522.02 627.959 l 5
 522.02 580.626 l 6
 522.043 260.605 920.496 45.9482 924.518 43.8184 c 6
 903.764 4.60254 l 6xf0f8
429.672 533.292 m 5
 194.994 533.292 l 5
 194.994 99.6484 l 5
 497.549 99.6719 l 5
 564.928 222.62 l 5
 496.791 308.246 441.41 412.782 429.672 533.292 c 5
882.771 684.214 m 5xf978
 557.33 684.214 l 5xf978
 598.938 725.821 l 5
 628.189 725.821 l 5xf278
 607.312 704.924 l 5
 921.467 704.924 l 5
 875.979 636.691 l 5
 851.082 636.691 l 5
 882.771 684.214 l 5xf978
832.998 657.589 m 5xf478
 493.053 657.589 l 5
 561.283 725.821 l 5
 590.533 725.821 l 5
 543.035 678.299 l 5
 871.719 678.299 l 5xf678
 843.98 636.691 l 5
 819.059 636.691 l 5xf878
 832.998 657.589 l 5xf478
EndSplineSet
Validated: 1
EndChar

StartChar: period
Encoding: 46 46 32
Width: 200
VWidth: 0
Flags: W
HStem: -0.0185547 44.375<50 150.629> 50.2734 44.375<50 150.629>
VStem: 50 100.629<-0.0185547 44.3564 50.2734 94.6484>
LayerCount: 2
Fore
SplineSet
50 -0.0185547 m 5
 50 44.3564 l 5
 150.629 44.3564 l 5
 150.629 -0.0185547 l 5
 50 -0.0185547 l 5
50 50.2734 m 5
 50 94.6484 l 5
 150.629 94.6484 l 5
 150.629 50.2734 l 5
 50 50.2734 l 5
EndSplineSet
Validated: 1
EndChar

StartChar: colon
Encoding: 58 58 33
Width: 200
VWidth: 0
Flags: W
HStem: -0.0185547 44.375<50 150.629> 50.2734 44.375<50 150.629> 176.085 44.375<50 150.629> 226.377 44.375<50 150.629>
VStem: 50 100.629<-0.0185547 44.3564 50.2734 94.6484 176.085 220.46 226.377 270.752>
LayerCount: 2
Fore
SplineSet
50 -0.0185547 m 5
 50 44.3564 l 5
 150.629 44.3564 l 5
 150.629 -0.0185547 l 5
 50 -0.0185547 l 5
50 50.2734 m 5
 50 94.6484 l 5
 150.629 94.6484 l 5
 150.629 50.2734 l 5
 50 50.2734 l 5
50 176.085 m 1
 50 220.46 l 1
 150.629 220.46 l 1
 150.629 176.085 l 1
 50 176.085 l 1
50 226.377 m 1
 50 270.752 l 1
 150.629 270.752 l 1
 150.629 226.377 l 1
 50 226.377 l 1
EndSplineSet
Validated: 1
EndChar

StartChar: semicolon
Encoding: 59 59 34
Width: 251
VWidth: 0
Flags: W
HStem: -145.964 44.375<0 82.6078> -95.6738 44.375<0 63.7017> 181.085 44.375<75.4512 176.08> 231.377 44.375<75.4512 176.08>
VStem: 78.4551 44.3749<-36.7889 102.606> 128.746 44.375<-56.7168 102.606>
LayerCount: 2
Fore
SplineSet
122.83 1.97656 m 6
 122.83 -2.02441 121.436 -95.6738 0 -95.6738 c 5
 0 -51.2988 l 5
 74.6699 -51.2988 78.4551 -6.92383 78.4551 1.97656 c 6
 78.4551 102.606 l 5
 122.83 102.606 l 5
 122.83 1.97656 l 6
128.746 1.97656 m 6
 128.746 102.606 l 5
 173.121 102.606 l 5
 173.121 1.97656 l 6
 173.121 -39.1562 142.023 -145.964 0 -145.964 c 5
 0 -101.589 l 5
 127.256 -101.589 128.746 0.93457 128.746 1.97656 c 6
75.4512 181.085 m 5
 75.4512 225.46 l 5
 176.08 225.46 l 5
 176.08 181.085 l 5
 75.4512 181.085 l 5
75.4512 231.377 m 5
 75.4512 275.752 l 5
 176.08 275.752 l 5
 176.08 231.377 l 5
 75.4512 231.377 l 5
EndSplineSet
Validated: 1
EndChar

StartChar: comma
Encoding: 44 44 35
Width: 273
VWidth: 0
Flags: W
HStem: -145.964 44.375<50 132.608> -95.6738 44.375<50 113.701>
VStem: 128.455 44.375<-36.7889 102.606> 178.748 44.375<-56.7168 102.606>
LayerCount: 2
Fore
SplineSet
172.83 1.97656 m 6
 172.83 -2.02441 171.434 -95.6738 50 -95.6738 c 5
 50 -51.2988 l 5
 124.67 -51.2988 128.455 -6.92383 128.455 1.97656 c 6
 128.455 102.606 l 5
 172.83 102.606 l 5
 172.83 1.97656 l 6
178.748 1.97656 m 6
 178.748 102.606 l 5
 223.123 102.606 l 5
 223.123 1.97656 l 6
 223.123 -39.1562 192.023 -145.964 50 -145.964 c 5
 50 -101.589 l 5
 177.256 -101.589 178.748 0.93457 178.748 1.97656 c 6
EndSplineSet
Validated: 1
EndChar

StartChar: exclam
Encoding: 33 33 36
Width: 322
VWidth: 0
Flags: W
HStem: 4.98145 44.375<122.211 222.842> 55.2734 44.375<122.211 222.842> 759.664 44.375<96.0586 175.484>
VStem: 125.193 44.375<178.104 709.372> 175.484 44.375<178.104 759.664>
LayerCount: 2
Fore
SplineSet
122.211 4.98145 m 5
 122.211 49.3564 l 5
 222.842 49.3564 l 5
 222.842 4.98145 l 5
 122.211 4.98145 l 5
122.211 55.2734 m 5
 122.211 99.6484 l 5
 222.842 99.6484 l 5
 222.842 55.2734 l 5
 122.211 55.2734 l 5
125.193 709.372 m 5
 99.4668 753.747 l 5
 169.568 753.747 l 5
 169.568 178.104 l 5
 125.193 178.104 l 5
 125.193 709.372 l 5
175.484 178.104 m 5
 175.484 759.664 l 5
 96.0586 759.664 l 5
 70.4297 804.039 l 5
 219.859 804.039 l 5
 219.859 178.104 l 5
 175.484 178.104 l 5
EndSplineSet
Validated: 1
EndChar

StartChar: question
Encoding: 63 63 37
Width: 675
VWidth: 0
Flags: W
HStem: 4.98145 44.375<247.965 348.596> 55.2734 44.375<247.965 348.596> 173.228 44.375<254.758 373.801> 709.372 44.375<194.668 448.469> 759.664 44.375<144.375 529.457>
VStem: 100 44.375<616.481 759.664> 150.293 44.375<648.147 709.372> 247.965 100.631<4.98145 49.3564 55.2734 99.6484>
LayerCount: 2
Fore
SplineSet
247.965 4.98145 m 5
 247.965 49.3564 l 5
 348.596 49.3564 l 5
 348.596 4.98145 l 5
 247.965 4.98145 l 5
247.965 55.2734 m 5
 247.965 99.6484 l 5
 348.596 99.6484 l 5
 348.596 55.2734 l 5
 247.965 55.2734 l 5
254.758 217.603 m 5
 373.801 217.603 l 5
 407.359 173.228 l 5
 183.307 173.228 l 5
 448.469 709.372 l 5
 194.668 709.372 l 5
 194.668 648.147 l 5
 325.402 595.607 l 5
 306.232 555.562 l 5
 150.293 620.22 l 5
 150.293 753.747 l 5
 519.941 753.747 l 5
 256.863 221.887 l 5
 254.758 217.603 l 5
303.699 550.262 m 5
 284.529 510.217 l 5
 100 588.53 l 5
 100 804.039 l 5
 600.906 804.039 l 5
 335.744 267.895 l 5
 335.77 267.87 l 5
 369.328 223.52 l 5
 264.295 223.52 l 5
 527.35 755.404 l 5
 529.457 759.664 l 5
 144.375 759.664 l 5
 144.375 616.481 l 5
 303.699 550.262 l 5
EndSplineSet
Validated: 1
EndChar

StartChar: hyphen
Encoding: 45 45 38
Width: 500
VWidth: 0
Flags: W
HStem: 352.085 44.375<50 450.629> 402.377 44.375<50 450.629>
LayerCount: 2
Fore
SplineSet
50 352.085 m 1
 50 396.46 l 1
 450.629 396.46 l 1
 450.629 352.085 l 1
 50 352.085 l 1
50 402.377 m 1
 50 446.752 l 1
 450.629 446.752 l 1
 450.629 402.377 l 1
 50 402.377 l 1
EndSplineSet
Validated: 1
EndChar

StartChar: zero
Encoding: 48 48 40
Width: 597
VWidth: 0
Flags: W
HStem: 0.615234 44.1582<93.583 502.191> 50.6611 44.1582<143.63 452.146> 707.048 44.1572<143.63 452.146> 757.093 44.1592<93.583 502.191>
VStem: 49.4258 44.1572<44.7734 757.093> 99.4707 44.1592<94.8193 707.048> 452.146 44.1592<94.8193 707.048> 502.191 44.1582<44.7734 757.093>
LayerCount: 2
Fore
SplineSet
496.305 751.205 m 1
 496.305 50.6611 l 1
 99.4707 50.6611 l 1
 99.4707 751.205 l 1
 496.305 751.205 l 1
452.146 94.8193 m 1
 452.146 707.048 l 1
 143.63 707.048 l 1
 143.63 94.8193 l 1
 452.146 94.8193 l 1
49.4258 801.252 m 1
 546.35 801.252 l 1
 546.35 0.615234 l 1
 49.4258 0.615234 l 1
 49.4258 801.252 l 1
502.191 44.7734 m 1
 502.191 757.093 l 1
 93.583 757.093 l 1
 93.583 44.7734 l 1
 502.191 44.7734 l 1
225.703 471.121 m 1
 296.512 541.93 l 1
 327.718 510.722 l 1
 256.911 439.914 l 1
 225.703 471.121 l 1
331.917 506.548 m 1
 363.124 475.341 l 1
 292.316 404.533 l 1
 261.108 435.74 l 1
 331.917 506.548 l 1
EndSplineSet
Validated: 1
EndChar

StartChar: one
Encoding: 49 49 41
Width: 322
VWidth: 0
Flags: W
HStem: 0.615234 21G<177.465 221.623 227.511 271.668> 0.615234 21G<177.465 221.623 227.511 271.668>
VStem: 177.465 44.1582<0.615234 596.617> 227.511 44.1572<0.615234 713.665>
LayerCount: 2
Fore
SplineSet
177.724 596.617 m 1xb0
 175.486 596.947 l 1
 119.859 596.947 l 1
 221.623 699.417 l 1
 221.623 0.615234 l 1
 177.465 0.615234 l 1
 177.465 592.284 l 1
 177.724 596.617 l 1xb0
49.3008 596.947 m 1
 271.668 820.799 l 1
 271.668 0.615234 l 1
 227.511 0.615234 l 1
 227.511 713.665 l 1
 111.545 596.947 l 1
 49.3008 596.947 l 1
EndSplineSet
Validated: 1
EndChar

StartChar: two
Encoding: 50 50 42
Width: 569
VWidth: 0
Flags: W
HStem: -0.464844 44.1572<116.691 475.066> 49.5811 44.1572<203.5 425.02> 701.822 44.1572<138.406 379.379> 751.868 44.1572<88.3594 429.424>
VStem: 44.2012 44.1582<689.646 751.868> 94.248 44.1582<660.749 701.822> 379.379 44.1562<585.74 701.822> 429.424 44.1582<572.315 751.868> 475.066 44.1562<43.6924 122.565>
LayerCount: 2
Fore
SplineSet
88.3594 751.868 m 1
 88.3594 664.142 l 1
 44.2012 689.646 l 1
 44.2012 796.025 l 1
 473.582 796.025 l 1
 473.582 560.446 l 1
 203.5 93.7383 l 1
 425.02 93.7383 l 1
 425.02 93.6904 l 1
 469.178 119.197 l 1
 469.178 49.5811 l 1
 126.914 49.5811 l 1
 429.047 571.633 l 1
 429.424 572.315 l 1
 429.424 751.868 l 1
 88.3594 751.868 l 1
475.066 122.565 m 1
 519.223 148.069 l 1
 519.223 -0.464844 l 1
 40.1055 -0.464844 l 1
 379.379 585.74 l 1
 379.379 701.822 l 1
 138.406 701.822 l 1
 138.406 635.243 l 1
 94.248 660.749 l 1
 94.248 745.979 l 1
 423.535 745.979 l 1
 423.535 573.87 l 1
 116.691 43.6924 l 1
 475.066 43.6924 l 1
 475.066 122.565 l 1
EndSplineSet
Validated: 1
EndChar

StartChar: three
Encoding: 51 51 43
Width: 520
VWidth: 0
Flags: W
HStem: -0.598633 44.1582<94.0918 405.695> 49.4463 44.1592<144.139 312.528> 700.369 44.1592<143.504 304.85> 750.415 44.1582<93.457 406.189>
VStem: 49.9355 44.1562<43.5596 160.301 634.074 750.415>
LayerCount: 2
Fore
SplineSet
495.612 794.573 m 1
 209.093 420.326 l 1
 487.934 -0.598633 l 1
 49.9355 -0.598633 l 1
 49.9355 218.73 l 1
 82.5527 175.585 l 1
 94.0918 160.301 l 1
 94.0918 43.5596 l 1
 405.695 43.5596 l 1
 154.878 422.187 l 1
 402.562 745.682 l 1
 406.189 750.415 l 1
 93.457 750.415 l 1
 93.457 634.074 l 1
 49.2998 580.283 l 1
 49.2998 794.573 l 1
 495.612 794.573 l 1
99.9805 49.4463 m 1
 99.9805 152.529 l 1
 144.139 94.1475 l 1
 144.139 93.6055 l 1
 312.528 93.6055 l 1
 93.457 424.282 l 1
 304.85 700.369 l 1
 143.504 700.369 l 1
 143.504 700.062 l 1
 99.3457 641.657 l 1
 99.3457 744.528 l 1
 394.272 744.528 l 1
 148.92 424.095 l 1
 147.647 422.422 l 1
 394.744 49.4463 l 1
 99.9805 49.4463 l 1
EndSplineSet
Validated: 1
EndChar

StartChar: four
Encoding: 52 52 44
Width: 544
VWidth: 0
Flags: W
HStem: -0.0712891 44.1572<337.844 416.951> 229.55 44.1338<109.542 366.883 461.133 488.523> 279.571 44.1807<205.654 366.883>
VStem: 366.883 44.1562<94.1797 229.55 273.684 279.571 323.752 553.986> 416.951 44.1348<44.0859 230.491 274.697 280.584 322.246 712.672>
LayerCount: 2
Fore
SplineSet
366.883 553.986 m 1,0,-1
503.219 249.262 m 1,1,-1
 512.85 232.611 l 1,2,-1
 512.85 230.491 l 1,3,-1
 461.133 230.491 l 1,4,-1
 461.133 -0.0712891 l 1,5,-1
 314.623 -0.0712891 l 1,6,-1
 312.504 -0.0712891 l 1,7,-1
 337.844 44.0859 l 1,8,-1
 416.951 44.0859 l 1,9,-1
 416.951 712.672 l 1,10,-1
 112.793 278.3 l 1,11,-1
 109.542 273.684 l 1,12,-1
 367.494 273.684 l 1,13,-1
 367.494 279.571 l 1,14,-1
 120.847 279.571 l 1,15,-1
 411.039 694.021 l 1,16,-1
 411.039 50.0215 l 1,17,-1
 341.213 50.0215 l 1,18,-1
 366.693 94.1797 l 1,19,-1
 367.118 94.1797 l 1,20,-1
 366.883 229.55 l 1,21,-1
 24.7129 229.55 l 1,22,-1
 461.086 852.752 l 1,23,-1
 461.086 324.766 l 1,24,-1
 461.086 324.436 l 1,25,-1
 461.086 322.74 l 1,26,-1
 461.086 322.246 l 1,27,-1
 485.132 280.584 l 1,28,-1
 461.086 280.584 l 1,29,-1
 461.086 274.697 l 1,30,-1
 488.523 274.697 l 1,31,-1
 503.219 249.262 l 1,1,-1
366.883 323.752 m 1,32,-1
 366.883 553.986 l 1,33,-1
 205.654 323.752 l 1,34,-1
 366.883 323.752 l 1,32,-1
EndSplineSet
Validated: 1
EndChar

StartChar: five
Encoding: 53 53 45
Width: 530
VWidth: 0
Flags: W
HStem: -0.0449219 44.1572<94.0889 435.201> 50.001 44.1572<144.136 384.496> 702.242 44.1572<195.9 383.648> 752.288 44.1572<145.242 433.693>
VStem: 49.9316 44.1572<44.1123 123.55> 99.9775 44.1582<94.1582 94.6299 572.336 752.288> 151.413 43.9453<592.33 702.242> 384.496 44.7461<94.1582 254.258> 436.072 43.8994<44.1123 274.276 673.345 752.288>
LayerCount: 2
Fore
SplineSet
386.263 254.258 m 1
 101.603 554.695 l 1
 100.543 796.445 l 1
 477.851 796.445 l 1
 477.851 647.84 l 1
 433.693 673.345 l 1
 433.693 752.288 l 1
 145.242 752.288 l 1
 145.549 573.466 l 1
 145.572 572.336 l 1
 430.208 271.92 l 1
 429.242 50.001 l 1
 99.9775 50.001 l 1
 99.9775 120.136 l 1
 144.136 94.6299 l 1
 144.136 94.1582 l 1
 384.496 94.1582 l 1
 386.263 254.258 l 1
195.358 592.33 m 1
 479.972 291.938 l 1
 479.946 -0.0449219 l 1
 49.9316 -0.0449219 l 1
 49.9316 149.056 l 1
 94.0889 123.55 l 1
 94.0889 44.1123 l 1
 435.201 44.1123 l 1
 436.072 273.145 l 1
 436.049 274.276 l 1
 151.413 574.69 l 1
 151.225 746.399 l 1
 427.806 746.399 l 1
 427.806 676.736 l 1
 383.648 702.242 l 1
 195.9 702.242 l 1
 195.358 592.33 l 1
EndSplineSet
Validated: 1
EndChar

StartChar: six
Encoding: 54 54 46
Width: 568
VWidth: 0
Flags: W
HStem: 0.239258 44.1592<93.1562 474.517> 50.2861 44.1572<143.203 424.472> 299.854 44.1592<170.311 424.472> 349.9 44.1572<199.23 474.517> 751.23 44.1582<93.1562 172.17>
VStem: 49 44.1562<44.3984 751.23> 99.0449 44.1582<94.4434 701.185> 424.472 44.1572<94.4434 299.854> 474.517 44.1572<44.3984 349.9>
LayerCount: 2
Fore
SplineSet
199.23 394.058 m 5
 518.674 394.058 l 5
 518.674 0.239258 l 5
 49 0.239258 l 5
 49 795.389 l 5
 197.677 795.389 l 5
 172.17 751.23 l 5
 93.1562 751.23 l 5
 93.1562 44.3984 l 5
 474.517 44.3984 l 5
 474.517 349.9 l 5
 173.701 349.9 l 5
 177.94 357.271 l 5
 199.23 394.058 l 5
145.464 299.854 m 5
 146.147 302.187 l 5
 170.311 344.013 l 5
 468.629 344.013 l 5
 468.629 50.2861 l 5
 99.0449 50.2861 l 5
 99.0449 745.343 l 5
 168.78 745.343 l 5
 143.274 701.185 l 5
 143.203 701.185 l 5
 143.203 94.4434 l 5
 424.472 94.4434 l 5
 424.472 299.854 l 5
 145.464 299.854 l 5
EndSplineSet
Validated: 1
EndChar

StartChar: seven
Encoding: 55 55 47
Width: 544
VWidth: 0
Flags: W
HStem: -0.0244141 21G<33.9248 147.828> -0.0244141 21G<33.9248 147.828> 705.207 44.1572<119.202 370.609> 755.252 44.1592<69.1572 449.952>
VStem: 25 44.1572<692.088 755.252> 75.0449 44.1572<663.192 705.207>
LayerCount: 2
Fore
SplineSet
75.0449 749.364 m 1xbc
 440.603 749.364 l 1
 82.8398 -0.0244141 l 1
 33.9248 -0.0244141 l 1
 370.609 705.207 l 1
 119.202 705.207 l 1
 119.202 637.686 l 1
 75.0449 663.192 l 1
 75.0449 749.364 l 1xbc
25 799.411 m 1
 519.944 799.411 l 1
 138.279 -0.0244141 l 1
 89.3877 -0.0244141 l 1
 447.949 751.036 l 1
 449.952 755.252 l 1
 69.1572 755.252 l 1
 69.1572 666.582 l 1
 25 692.088 l 1
 25 799.411 l 1
EndSplineSet
Validated: 1
EndChar

StartChar: eight
Encoding: 56 56 48
Width: 722
VWidth: 0
Flags: W
HStem: -0.138672 44.1826<109.9 612.335> 49.9297 44.1357<205.729 516.153> 700.854 44.1582<206.06 513.516> 750.898 44.1348<109.9 609.367>
LayerCount: 2
Fore
SplineSet
417.805 398.602 m 1
 697.213 -0.138672 l 1
 439.755 -0.138672 l 1
 391.546 -0.138672 l 1
 25.3301 -0.138672 l 1
 302.899 398.412 l 1
 25 795.033 l 1
 365.875 795.033 l 1
 391.546 795.033 l 1
 693.916 795.033 l 1
 417.805 398.602 l 1
109.9 44.0439 m 1
 439.755 44.0439 l 1
 612.335 44.0439 l 1
 390.956 360.025 l 1
 387.377 354.867 l 1
 601.03 49.9297 l 1
 439.755 49.9297 l 1
 121.182 49.9297 l 1
 609.367 750.898 l 1
 365.898 750.898 l 1
 109.9 750.898 l 1
 329.795 437.061 l 1
 333.374 442.194 l 1
 121.205 745.012 l 1
 365.898 745.012 l 1
 598.087 745.012 l 1
 109.9 44.0439 l 1
360.246 480.793 m 1
 513.516 700.854 l 1
 391.546 700.854 l 1
 365.875 700.854 l 1
 206.06 700.854 l 1
 360.246 480.793 l 1
360.481 316.268 m 1
 205.729 94.0654 l 1
 391.546 94.0654 l 1
 439.755 94.0654 l 1
 516.153 94.0654 l 1
 360.481 316.268 l 1
EndSplineSet
Validated: 1
EndChar

StartChar: nine
Encoding: 57 57 49
Width: 568
VWidth: 0
Flags: W
HStem: 0.239258 44.1592<395.528 474.517> 401.571 44.1572<93.1582 368.444> 451.616 44.1572<143.204 397.364> 701.185 44.1582<143.204 424.472> 751.23 44.1582<93.1582 474.517>
VStem: 49 44.1582<445.729 751.23> 99.0459 44.1582<495.773 701.185> 424.472 44.1572<94.4434 701.185> 474.517 44.1592<44.3984 751.23>
LayerCount: 2
Fore
SplineSet
49 795.389 m 1
 518.676 795.389 l 1
 518.676 0.239258 l 1
 369.999 0.239258 l 1
 395.528 44.3984 l 1
 474.517 44.3984 l 1
 474.517 751.23 l 1
 93.1582 751.23 l 1
 93.1582 445.729 l 1
 393.974 445.729 l 1
 389.734 438.38 l 1
 368.444 401.571 l 1
 49 401.571 l 1
 49 795.389 l 1
424.401 94.4434 m 1
 424.472 94.4434 l 1
 424.472 701.185 l 1
 143.204 701.185 l 1
 143.204 495.773 l 1
 422.682 495.773 l 1
 421.528 493.466 l 1
 397.364 451.616 l 1
 99.0459 451.616 l 1
 99.0459 745.343 l 1
 468.629 745.343 l 1
 468.629 50.2861 l 1
 398.896 50.2861 l 1
 424.401 94.4434 l 1
EndSplineSet
Validated: 1
EndChar

StartChar: equal
Encoding: 61 61 51
Width: 500
VWidth: 0
Flags: W
HStem: 175.981 44.375<50 450.629> 226.273 44.375<50 450.629> 352.085 44.375<50 450.629> 402.377 44.375<50 450.629>
LayerCount: 2
Fore
SplineSet
50 175.981 m 1
 50 220.356 l 1
 450.629 220.356 l 1
 450.629 175.981 l 1
 50 175.981 l 1
50 226.273 m 1
 50 270.648 l 1
 450.629 270.648 l 1
 450.629 226.273 l 1
 50 226.273 l 1
50 352.085 m 5
 50 396.46 l 5
 450.629 396.46 l 5
 450.629 352.085 l 5
 50 352.085 l 5
50 402.377 m 5
 50 446.752 l 5
 450.629 446.752 l 5
 450.629 402.377 l 5
 50 402.377 l 5
EndSplineSet
Validated: 1
EndChar

StartChar: at
Encoding: 64 64 53
Width: 397
VWidth: 0
Flags: W
HStem: 376.585 20.8564<83.3652 177.112 197.969 200.749 221.605 314.152> 400.223 20.8564<94.0225 303.495> 484.275 20.8564<131.913 265.604> 507.912 20.8564<142.569 254.948> 708.812 20.833<80.4336 174.915 222.579 318.139> 732.426 20.8564<66.7744 331.776>
VStem: 177.112 20.8564<44.1201 376.585> 200.749 20.8564<44.1201 376.585>
LayerCount: 2
Fore
SplineSet
142.569 528.769 m 1
 254.948 528.769 l 1
 198.753 653.395 l 1
 142.569 528.769 l 1
265.604 505.132 m 1
 264.348 507.912 l 1
 133.169 507.912 l 1
 131.913 505.132 l 1
 265.604 505.132 l 1
318.139 708.789 m 1
 222.579 708.812 l 1
 372.478 376.335 l 1
 349.607 376.335 l 1
 335.412 407.817 l 1
 333.695 404.845 l 1
 346.549 376.335 l 1
 323.668 376.335 l 1
 320.843 382.603 l 1
 317.367 376.585 l 1
 221.605 376.585 l 1
 221.605 44.1201 l 1
 200.749 44.1201 l 1
 200.749 376.585 l 1
 197.969 376.585 l 1
 197.969 44.1201 l 1
 177.112 44.1201 l 1
 177.112 376.585 l 1
 81.2734 376.585 l 1
 77.168 383.694 l 1
 73.8496 376.335 l 1
 50.9678 376.335 l 1
 64.3232 405.959 l 1
 62.6113 408.923 l 1
 47.9199 376.335 l 1
 25.04 376.335 l 1
 174.915 708.789 l 1
 80.4336 708.789 l 1
 68.3867 729.645 l 1
 330.175 729.645 l 1
 318.139 708.789 l 1
66.7744 732.426 m 1
 57.2197 748.988 l 1
 54.7393 753.282 l 1
 343.824 753.282 l 1
 341.098 748.555 l 1
 331.776 732.426 l 1
 66.7744 732.426 l 1
84.6191 400.223 m 1
 83.3652 397.441 l 1
 314.152 397.441 l 1
 312.898 400.223 l 1
 84.6191 400.223 l 1
94.0225 421.079 m 1
 303.495 421.079 l 1
 275.003 484.275 l 1
 122.514 484.275 l 1
 94.0225 421.079 l 1
326.376 421.079 m 1
 329.433 421.079 l 1
 198.753 710.902 l 1
 68.0918 421.079 l 1
 71.1396 421.079 l 1
 198.753 704.15 l 1
 326.376 421.079 l 1
EndSplineSet
Validated: 1
EndChar

StartChar: asciicircum
Encoding: 94 94 57
Width: 815
VWidth: 0
Flags: W
HStem: 896.085 44.375<208 608.629> 946.377 44.375<208 608.629>
LayerCount: 2
Fore
SplineSet
208 896.085 m 1
 208 940.46 l 1
 608.629 940.46 l 1
 608.629 896.085 l 1
 208 896.085 l 1
208 946.377 m 1
 208 990.752 l 1
 608.629 990.752 l 1
 608.629 946.377 l 1
 208 946.377 l 1
EndSplineSet
Validated: 1
EndChar

StartChar: underscore
Encoding: 95 95 58
Width: 500
VWidth: 0
Flags: W
HStem: -0.0185547 44.375<50 450.629> 50.2734 44.375<50 450.629>
LayerCount: 2
Fore
SplineSet
50 -0.0185547 m 5
 50 44.3564 l 5
 450.629 44.3564 l 5
 450.629 -0.0185547 l 5
 50 -0.0185547 l 5
50 50.2734 m 5
 50 94.6484 l 5
 450.629 94.6484 l 5
 450.629 50.2734 l 5
 50 50.2734 l 5
EndSplineSet
Validated: 1
EndChar

StartChar: grave
Encoding: 96 96 59
Width: 815
VWidth: 0
Flags: W
HStem: -0.0537109 21G<24 136.866 650.362 763.229> 229.607 44.375<251.39 535.839> 279.898 44.375<274.062 513.166> 707.344 44.3262<141.859 342.884 444.295 647.615> 757.587 44.375<112.797 676.631>
LayerCount: 2
Fore
SplineSet
208 896.085 m 1
 208 940.46 l 1
 608.629 940.46 l 1
 608.629 896.085 l 1
 208 896.085 l 1
208 946.377 m 1
 208 990.752 l 1
 608.629 990.752 l 1
 608.629 946.377 l 1
 208 946.377 l 1
EndSplineSet
Validated: 1
EndChar

StartChar: b
Encoding: 98 98 60
Width: 658
VWidth: 0
Flags: W
HStem: -0.0185547 44.375<179.497 562.755> 50.2734 44.375<229.788 512.462> 528.292 44.375<287.369 512.462> 578.584 44.375<258.331 562.755> 704.372 44.375<79.6465 135.122 179.497 185.413> 754.664 44.375<50.6074 259.229>
VStem: 135.122 44.375<44.3564 704.372> 185.413 44.375<94.6484 704.372> 512.462 44.375<94.6484 528.292> 562.755 44.375<44.3564 578.584>
LayerCount: 2
Fore
SplineSet
232.77 622.959 m 1
 607.13 622.959 l 1
 607.13 -0.0185547 l 1
 135.122 -0.0185547 l 1
 135.122 704.372 l 1
 79.6465 704.372 l 1
 54.0391 748.747 l 1
 255.821 748.747 l 1
 229.788 704.372 l 1
 229.788 94.6484 l 1
 512.462 94.6484 l 1
 512.462 528.292 l 1
 287.369 528.292 l 1
 267.039 563.484 l 1
 261.738 572.667 l 1
 556.837 572.667 l 1
 556.837 50.2734 l 1
 185.413 50.2734 l 1
 185.413 704.372 l 1
 179.497 704.372 l 1
 179.497 44.3564 l 1
 562.755 44.3564 l 1
 562.755 578.584 l 1
 258.331 578.584 l 1
 232.77 622.865 l 1
 232.77 622.959 l 1
284.837 799.039 m 1
 259.229 754.664 l 1
 50.6074 754.664 l 1
 25 799.039 l 1
 284.837 799.039 l 1
EndSplineSet
Validated: 1
EndChar

StartChar: c
Encoding: 99 99 61
Width: 533
VWidth: 0
Flags: W
HStem: -0.0947266 44.375<94.375 482.628> 50.1953 44.375<144.666 453.588> 703.372 44.375<144.666 415.461> 753.664 44.375<103.394 444.5>
VStem: 50 44.375<44.2803 705.549> 100.291 44.375<94.5703 703.372>
LayerCount: 2
Fore
SplineSet
482.628 44.2803 m 1
 488.426 34.2207 l 1
 508.259 -0.0947266 l 1
 50 -0.0947266 l 1
 50 705.549 l 1
 83.6074 763.77 l 1
 103.394 798.039 l 1
 470.131 798.039 l 1
 444.5 753.664 l 1
 94.375 753.664 l 1
 94.375 44.2803 l 1
 482.628 44.2803 l 1
144.666 94.5703 m 1
 453.588 94.5703 l 1
 479.195 50.1953 l 1
 100.291 50.1953 l 1
 100.291 747.747 l 1
 441.093 747.747 l 1
 435.791 738.611 l 1
 415.461 703.372 l 1
 144.666 703.372 l 1
 144.666 94.5703 l 1
EndSplineSet
Validated: 1
EndChar

StartChar: d
Encoding: 100 100 62
Width: 682
VWidth: 0
Flags: W
HStem: -0.0185547 44.375<204.749 588.031> 50.2734 44.375<255.04 537.738> 704.372 44.375<79.6475 537.738> 754.664 44.375<50.6074 588.031>
VStem: 160.374 44.375<44.3564 621.445> 210.665 44.375<94.6484 650.482> 537.738 44.375<94.6484 704.372> 588.031 44.375<44.3564 754.664>
LayerCount: 2
Fore
SplineSet
25 799.039 m 1
 632.406 799.039 l 1
 632.406 -0.0185547 l 1
 160.374 -0.0185547 l 1
 160.374 621.445 l 1
 169.485 626.698 l 1
 204.749 647.052 l 1
 204.749 44.3564 l 1
 588.031 44.3564 l 1
 588.031 754.664 l 1
 50.6074 754.664 l 1
 30.8232 788.981 l 1
 25 799.039 l 1
210.665 50.2734 m 1
 210.665 650.482 l 1
 255.04 676.092 l 1
 255.04 94.6484 l 1
 537.738 94.6484 l 1
 537.738 704.372 l 1
 79.6475 704.372 l 1
 54.0391 748.747 l 1
 582.113 748.747 l 1
 582.113 50.2734 l 1
 210.665 50.2734 l 1
EndSplineSet
Validated: 1
EndChar

StartChar: e
Encoding: 101 101 63
Width: 533
VWidth: 0
Flags: W
HStem: -0.0185547 44.375<144.375 532.627> 50.2734 44.375<194.667 503.588> 427.662 44.375<194.667 307.557> 477.953 44.375<194.667 336.596> 704.372 44.375<194.667 467.307> 754.664 44.375<144.375 496.346>
VStem: 100 44.375<44.3564 754.664> 150.292 44.375<94.6484 427.662 472.037 477.953 522.328 704.372>
LayerCount: 2
Fore
SplineSet
488.425 34.2988 m 1
 508.233 -0.0185547 l 1
 50 -0.0185547 l 1
 50 799.039 l 1
 471.977 799.039 l 1
 446.346 754.664 l 1
 94.375 754.664 l 1
 94.375 44.3564 l 1
 482.627 44.3564 l 1
 488.425 34.2988 l 1
417.307 704.372 m 1
 144.667 704.372 l 1
 144.667 522.328 l 1
 312.203 522.328 l 1
 286.596 477.953 l 1
 144.667 477.953 l 1
 144.667 472.037 l 1
 283.188 472.037 l 1
 257.557 427.662 l 1
 144.667 427.662 l 1
 144.667 94.6484 l 1
 453.588 94.6484 l 1
 479.194 50.2734 l 1
 100.292 50.2734 l 1
 100.292 748.747 l 1
 442.938 748.747 l 1
 417.307 704.372 l 1
EndSplineSet
Validated: 1
EndChar

StartChar: f
Encoding: 102 102 64
Width: 473
VWidth: 0
Flags: W
HStem: 0 21G<50 94.375 100.291 144.666> 0 21G<50 94.375 100.291 144.666> 229.4 44.375<144.666 397.64> 279.691 44.375<144.666 368.6> 707.372 44.375<144.666 417.755> 757.664 44.375<94.375 446.796>
VStem: 50 44.375<0 757.664> 100.291 44.375<0 229.4 273.775 279.691 324.066 707.372>
LayerCount: 2
Fore
SplineSet
50 802.039 m 1xbf
 472.427 802.039 l 1
 446.796 757.664 l 1
 94.375 757.664 l 1
 94.375 0 l 1
 50 0 l 1
 50 802.039 l 1xbf
100.291 0 m 1
 100.291 751.747 l 1
 443.387 751.747 l 1
 438.109 742.611 l 1
 417.755 707.372 l 1
 144.666 707.372 l 1
 144.666 324.066 l 1
 368.6 324.066 l 1
 388.931 288.851 l 1
 394.207 279.691 l 1
 144.666 279.691 l 1
 144.666 273.775 l 1
 397.64 273.775 l 1
 423.246 229.4 l 1
 144.666 229.4 l 1
 144.666 0 l 1
 100.291 0 l 1
EndSplineSet
Validated: 1
EndChar

StartChar: h
Encoding: 104 104 65
Width: 601
VWidth: 0
Flags: W
HStem: -0.556641 21G<79.834 124.209 130.127 174.502 457.198 501.573 507.492 551.867> -0.556641 21G<79.834 124.209 130.127 174.502 457.198 501.573 507.492 551.867> 529.292 44.375<174.502 457.198> 579.584 44.375<174.502 507.492> 755.664 44.375<50.6074 203.328>
VStem: 79.834 44.375<-0.556641 705.372> 130.127 44.375<-0.556641 529.292 573.667 579.584 623.959 705.372> 457.198 44.375<-0.556641 529.292> 507.492 44.375<-0.556641 579.584>
LayerCount: 2
Fore
SplineSet
174.502 623.959 m 1xbf80
 551.867 623.959 l 1
 551.867 -0.556641 l 1
 507.492 -0.556641 l 1
 507.492 579.584 l 1
 174.502 579.584 l 1
 174.502 573.667 l 1
 501.573 573.667 l 1
 501.573 -0.556641 l 1
 457.198 -0.556641 l 1
 457.198 529.292 l 1
 174.502 529.292 l 1
 174.502 -0.556641 l 1
 130.127 -0.556641 l 1
 130.127 705.372 l 1
 124.209 705.372 l 1
 124.209 -0.556641 l 1
 79.834 -0.556641 l 1
 79.834 705.372 l 1
 79.6445 705.372 l 1
 54.0156 749.747 l 1
 199.896 749.747 l 1
 174.265 705.372 l 1
 174.502 705.372 l 1
 174.502 623.959 l 1xbf80
228.935 800.039 m 1
 203.328 755.664 l 1
 50.6074 755.664 l 1
 25 800.039 l 1
 228.935 800.039 l 1
EndSplineSet
Validated: 1
EndChar

StartChar: i
Encoding: 105 105 66
Width: 224
VWidth: 0
Flags: W
HStem: 0.0449219 21G<79.623 123.998 129.915 174.29> 756.266 44.375<50.6084 129.915>
VStem: 79.623 44.375<0.0449219 705.974> 129.915 44.375<0.0449219 756.266>
LayerCount: 2
Fore
SplineSet
25 800.641 m 1
 174.29 800.641 l 1
 174.29 0.0449219 l 1
 129.915 0.0449219 l 1
 129.915 756.266 l 1
 50.6084 756.266 l 1
 25 800.641 l 1
79.623 705.974 m 1
 54.0156 750.349 l 1
 123.998 750.349 l 1
 123.998 0.0449219 l 1
 79.623 0.0449219 l 1
 79.623 705.974 l 1
EndSplineSet
Validated: 1
EndChar

StartChar: j
Encoding: 106 106 67
Width: 218
VWidth: 0
Flags: W
HStem: 754.808 44.375<44.9199 124.25>
VStem: 73.959 44.375<-35.9786 704.516> 124.154 44.4707<-42.4553 754.808>
LayerCount: 2
Fore
SplineSet
73.959 704.516 m 1
 48.3516 748.891 l 1
 118.334 748.891 l 1
 118.334 -14.8555 l 1
 42.9307 -304.016 l 1
 0 -292.82 l 1
 73.959 -9.12793 l 1
 73.959 704.516 l 1
19.3115 799.183 m 1
 168.625 799.183 l 1
 168.625 -21.293 l 1
 91.6143 -316.724 l 1
 45.7959 -304.772 l 1
 48.6826 -305.506 l 1
 124.154 -15.9678 l 1
 124.25 754.808 l 1
 44.9199 754.808 l 1
 19.3115 799.183 l 1
EndSplineSet
Validated: 1
EndChar

StartChar: k
Encoding: 107 107 68
Width: 630
VWidth: 0
Flags: W
HStem: -1.4707 44.375<451.52 559.605> 429.264 44.375<174.361 323.389> 479.555 44.375<174.361 325.33> 756.266 44.375<50.6309 129.986 394.459 509.385>
VStem: 79.6934 44.375<0.0683594 705.974> 129.986 44.375<0.0683594 429.264 473.639 479.555 523.93 756.266>
LayerCount: 2
Fore
SplineSet
478.973 96.1777 m 1
 323.389 429.264 l 1
 174.361 429.264 l 1
 174.361 0.0683594 l 1
 129.986 0.0683594 l 1
 129.986 756.266 l 1
 50.6309 756.266 l 1
 25 800.641 l 1
 174.361 800.641 l 1
 174.361 523.93 l 1
 325.33 523.93 l 1
 424.658 705.974 l 1
 423.522 705.974 l 1
 397.892 750.349 l 1
 499.398 750.349 l 1
 351.718 479.555 l 1
 174.361 479.555 l 1
 174.361 473.639 l 1
 351.575 473.639 l 1
 550.258 48.8213 l 1
 454.952 48.8213 l 1
 480.583 93.1963 l 1
 480.346 93.1963 l 1
 478.998 96.1309 l 1
 479.021 96.1777 l 1
 478.973 96.1777 l 1
79.6699 705.974 m 1
 54.0381 750.349 l 1
 124.068 750.349 l 1
 124.068 0.0683594 l 1
 79.6934 0.0683594 l 1
 79.6934 705.974 l 1
 79.6699 705.974 l 1
406.436 474.916 m 1
 629.518 -1.4707 l 1
 425.913 -1.4707 l 1
 444.657 31.001 l 1
 451.52 42.9043 l 1
 559.605 42.9043 l 1
 356.759 476.525 l 1
 506.971 751.911 l 1
 509.385 756.266 l 1
 394.459 756.266 l 1
 386.129 770.75 l 1
 368.828 800.641 l 1
 584.125 800.641 l 1
 406.436 474.916 l 1
EndSplineSet
Validated: 1
EndChar

StartChar: l
Encoding: 108 108 69
Width: 516
VWidth: 0
Flags: W
HStem: 0.000976562 44.375<123.996 466.288> 50.293 44.375<174.288 437.249> 754.684 44.375<50.6064 129.913>
VStem: 79.6211 44.375<44.376 704.392> 129.913 44.375<94.668 754.684>
LayerCount: 2
Fore
SplineSet
466.288 44.376 m 1
 472.087 34.3184 l 1
 491.896 0.000976562 l 1
 79.6211 0.000976562 l 1
 79.6211 704.392 l 1
 54.0146 748.767 l 1
 123.996 748.767 l 1
 123.996 44.376 l 1
 466.288 44.376 l 1
174.288 94.668 m 1
 437.249 94.668 l 1
 462.88 50.293 l 1
 129.913 50.293 l 1
 129.913 754.684 l 1
 50.6064 754.684 l 1
 25 799.059 l 1
 174.288 799.059 l 1
 174.288 94.668 l 1
EndSplineSet
Validated: 1
EndChar

StartChar: o
Encoding: 111 111 70
Width: 664
VWidth: 0
Flags: W
HStem: 0.0732422 44.375<50.6074 330.867 332.24 614.086> 50.3652 44.375<79.623 282.871 386.247 585.047> 705.388 44.375<94.2012 280.576 389.017 570.16> 755.68 44.375<65.1152 599.2>
LayerCount: 2
Fore
SplineSet
516.91 425.554 m 1
 334.135 104.871 l 1
 171.568 425.577 l 1
 334.087 696.915 l 1
 516.91 425.554 l 1
336.312 614.224 m 1
 222.237 423.778 l 1
 336.405 198.495 l 1
 464.726 423.612 l 1
 336.312 614.224 l 1
633.896 10.1094 m 1
 639.693 0.0732422 l 1
 332.24 0.0732422 l 1
 331.506 -1.22754 l 1
 330.867 0.0732422 l 1
 25 0.0732422 l 1
 30.2764 9.18555 l 1
 50.6074 44.4482 l 1
 614.086 44.4482 l 1
 633.896 10.1094 l 1
599.2 755.68 m 1
 65.1152 755.68 l 1
 39.5078 800.055 l 1
 624.807 800.055 l 1
 599.2 755.68 l 1
54.0137 50.3652 m 1
 79.623 94.7402 l 1
 282.871 94.7402 l 1
 114.152 427.612 l 1
 280.576 705.388 l 1
 94.2012 705.388 l 1
 68.5459 749.763 l 1
 595.77 749.763 l 1
 570.16 705.388 l 1
 389.017 705.388 l 1
 576.078 427.777 l 1
 386.247 94.7402 l 1
 585.047 94.7402 l 1
 610.654 50.3652 l 1
 54.0137 50.3652 l 1
164.822 425.814 m 1
 331.318 97.3203 l 1
 333.803 92.4209 l 1
 522.947 424.251 l 1
 523.869 425.838 l 1
 333.803 707.92 l 1
 165.65 427.234 l 1
 164.822 425.814 l 1
EndSplineSet
Validated: 1
EndChar

StartChar: p
Encoding: 112 112 71
Width: 601
VWidth: 0
Flags: W
HStem: 0.223633 44.375<50.6074 130.459> 176.28 44.375<203.896 507.801> 226.572 44.375<232.935 457.508> 704.591 44.375<174.834 457.508> 754.883 44.375<124.542 507.801>
VStem: 80.167 44.375<94.8906 754.883> 130.459 44.375<44.5986 704.591> 457.508 44.375<270.947 704.591> 507.801 44.375<220.655 754.883>
LayerCount: 2
Fore
SplineSet
207.304 226.572 m 1
 225.978 258.9 l 1
 232.935 270.947 l 1
 457.508 270.947 l 1
 457.508 704.591 l 1
 174.834 704.591 l 1
 174.834 0.223633 l 1
 25 0.223633 l 1
 50.6074 44.5986 l 1
 130.459 44.5986 l 1
 130.459 748.966 l 1
 501.883 748.966 l 1
 501.883 226.572 l 1
 207.304 226.572 l 1
552.176 799.258 m 1
 552.176 176.28 l 1
 178.288 176.28 l 1
 203.896 220.655 l 1
 507.801 220.655 l 1
 507.801 754.883 l 1
 124.542 754.883 l 1
 124.542 50.5156 l 1
 54.0381 50.5156 l 1
 79.6465 94.8906 l 1
 80.167 94.8906 l 1
 80.167 799.258 l 1
 552.176 799.258 l 1
EndSplineSet
Validated: 1
EndChar

StartChar: q
Encoding: 113 113 72
Width: 572
VWidth: 0
Flags: W
HStem: 0.124023 44.375<397.806 477.609> 176.181 44.375<94.375 427.318> 226.473 44.375<144.667 427.318> 704.491 44.375<144.667 427.318> 754.783 44.375<94.375 477.609>
VStem: 50 44.375<220.556 754.783> 100.292 44.375<270.848 704.491> 427.318 44.375<94.791 176.181 270.848 704.491> 477.609 44.375<44.499 754.783>
LayerCount: 2
Fore
SplineSet
100.292 226.473 m 1
 100.292 748.866 l 1
 471.693 748.866 l 1
 471.693 226.473 l 1
 100.292 226.473 l 1
144.667 704.491 m 1
 144.667 270.848 l 1
 427.318 270.848 l 1
 427.318 704.491 l 1
 144.667 704.491 l 1
50 799.158 m 1
 521.984 799.158 l 1
 521.984 0.124023 l 1
 372.199 0.124023 l 1
 397.806 44.499 l 1
 477.609 44.499 l 1
 477.609 754.783 l 1
 94.375 754.783 l 1
 94.375 220.556 l 1
 471.693 220.556 l 1
 471.693 50.416 l 1
 401.238 50.416 l 1
 426.845 94.791 l 1
 427.318 94.791 l 1
 427.318 176.181 l 1
 50 176.181 l 1
 50 799.158 l 1
EndSplineSet
Validated: 1
EndChar

StartChar: r
Encoding: 114 114 73
Width: 636
VWidth: 0
Flags: W
HStem: 0.100586 44.375<517.008 633.66> 352.308 44.375<249.385 399.787> 402.6 44.351<249.385 399.976> 704.491 44.375<154.197 154.693 199.068 204.986 249.361 481.744> 754.783 44.375<125.395 532.059>
VStem: 154.693 44.375<-2.9043 704.491> 204.986 44.375<-2.9043 352.308 396.683 402.6 446.951 704.491> 481.744 44.398<588.406 704.491> 532.059 44.375<574.939 754.783>
LayerCount: 2
Fore
SplineSet
416.377 0.100586 m 1
 422.198 10.1582 l 1
 442.008 44.4756 l 1
 558.66 44.4756 l 1
 355.719 399.641 l 1
 456.656 574.229 l 1
 457.059 574.939 l 1
 457.059 754.783 l 1
 50.3945 754.783 l 1
 25 799.158 l 1
 501.434 799.158 l 1
 501.434 563.036 l 1
 406.887 399.499 l 1
 635.104 0.100586 l 1
 416.377 0.100586 l 1
548.438 50.3926 m 1
 445.414 50.3926 l 1
 471.045 94.7676 l 1
 471.969 94.7676 l 1
 324.787 352.308 l 1
 174.361 352.308 l 1
 174.361 -2.9043 l 1
 129.986 -2.9043 l 1
 129.986 704.491 l 1
 124.068 704.491 l 1
 124.068 -2.9043 l 1
 79.6934 -2.9043 l 1
 79.6934 704.491 l 1
 79.1973 704.491 l 1
 53.8027 748.866 l 1
 451.142 748.866 l 1
 451.142 576.526 l 1
 350.582 402.6 l 1
 174.385 402.6 l 1
 174.385 396.683 l 1
 350.582 396.683 l 1
 548.438 50.3926 l 1
174.361 704.491 m 1
 174.361 446.951 l 1
 324.976 446.951 l 1
 406.744 588.406 l 1
 406.744 704.491 l 1
 174.361 704.491 l 1
EndSplineSet
Validated: 1
EndChar

StartChar: s
Encoding: 115 115 74
Width: 854
VWidth: 0
Flags: W
HStem: -1.15918 44.5039<118.664 736.618> 49.2773 44.5068<222.581 632.817> 705.092 44.5068<273.138 593.179> 755.531 44.5039<169.342 686.152>
LayerCount: 2
Fore
SplineSet
151.465 152.722 m 1
 222.581 93.7842 l 1
 632.817 93.7842 l 1
 77.7168 800.035 l 1
 777.727 800.035 l 1
 661.139 651.683 l 1
 624.818 680.239 l 1
 626.17 679.194 l 1
 686.152 755.531 l 1
 169.342 755.531 l 1
 724.412 49.2773 l 1
 131.269 49.2773 l 1
 190.297 120.512 l 1
 185.718 124.334 l 1
 118.664 43.3447 l 1
 736.618 43.3447 l 1
 181.517 749.599 l 1
 673.949 749.599 l 1
 621.471 682.85 l 1
 593.179 705.092 l 1
 273.138 705.092 l 1
 828.213 -1.15918 l 1
 24.0039 -1.15918 l 1
 151.465 152.722 l 1
EndSplineSet
Validated: 524289
EndChar

StartChar: t
Encoding: 116 116 75
Width: 661
VWidth: 0
Flags: W
HStem: 0.107422 21G<358.559 402.934 408.85 453.225> 707.479 44.375<154.646 358.559 402.934 408.85 453.225 656.973> 757.771 44.375<125.632 686.033>
VStem: 358.559 44.375<0.107422 707.479> 408.85 44.375<0.107422 707.479>
LayerCount: 2
Fore
SplineSet
79.6465 707.479 m 1
 54.0156 751.854 l 1
 607.602 751.854 l 1
 581.973 707.479 l 1
 378.225 707.479 l 1
 378.225 0.107422 l 1
 333.85 0.107422 l 1
 333.85 707.479 l 1
 327.934 707.479 l 1
 327.934 0.107422 l 1
 283.559 0.107422 l 1
 283.559 707.479 l 1
 79.6465 707.479 l 1
25 802.146 m 1
 636.664 802.146 l 1
 611.033 757.771 l 1
 50.6318 757.771 l 1
 25 802.146 l 1
EndSplineSet
Validated: 1
EndChar

StartChar: u
Encoding: 117 117 76
Width: 652
VWidth: 0
Flags: W
HStem: 0.100586 44.375<124.068 557.643> 50.3926 44.375<174.359 507.351> 754.783 44.375<50.6309 129.984 477.98 557.643>
VStem: 79.6934 44.375<44.4756 704.491> 129.984 44.375<94.7676 754.783> 507.351 44.375<94.7676 704.491> 557.643 44.375<44.4756 754.783>
LayerCount: 2
Fore
SplineSet
507.351 704.491 m 1
 507.043 704.491 l 1
 481.388 748.866 l 1
 551.726 748.866 l 1
 551.726 50.3926 l 1
 129.984 50.3926 l 1
 129.984 754.783 l 1
 50.6309 754.783 l 1
 25 799.158 l 1
 174.359 799.158 l 1
 174.359 94.7676 l 1
 507.351 94.7676 l 1
 507.351 704.491 l 1
452.35 799.158 m 1
 602.018 799.158 l 1
 602.018 0.100586 l 1
 79.6934 0.100586 l 1
 79.6934 704.491 l 1
 54.0615 748.866 l 1
 124.068 748.866 l 1
 124.068 44.4756 l 1
 557.643 44.4756 l 1
 557.643 754.783 l 1
 477.98 754.783 l 1
 452.35 799.158 l 1
EndSplineSet
Validated: 5
EndChar

StartChar: v
Encoding: 118 118 77
Width: 690
VWidth: 0
Flags: W
HStem: 0.0283203 44.375<163.923 344.31 345.729 524.604> 50.3184 44.375<192.962 305.048 384.946 495.541> 753.811 44.375<89.6572 192.062 498.191 600.36>
LayerCount: 2
Fore
SplineSet
163.923 44.4033 m 1
 524.604 44.4033 l 1
 550.211 0.0283203 l 1
 345.729 0.0283203 l 1
 345.02 -1.7002 l 1
 344.31 0.0283203 l 1
 138.315 0.0283203 l 1
 163.923 44.4033 l 1
522.685 50.3184 m 1
 526.094 44.4033 l 1
 524.604 44.4033 l 1
 521.171 50.3184 l 1
 522.685 50.3184 l 1
496.938 94.9072 m 1
 495.422 94.9072 l 1
 495.541 94.6934 l 1
 497.056 94.6934 l 1
 496.938 94.9072 l 1
526.094 44.4033 m 1
 551.7 0.0283203 l 1
 550.211 0.0283203 l 1
 524.604 44.4033 l 1
 526.094 44.4033 l 1
497.056 94.6934 m 1
 522.685 50.3184 l 1
 521.171 50.3184 l 1
 495.541 94.6934 l 1
 497.056 94.6934 l 1
222.214 425.791 m 1
 98.248 747.894 l 1
 188.63 747.894 l 1
 163.022 703.519 l 1
 162.905 703.519 l 1
 263.631 441.742 l 1
 345.02 245.521 l 1
 426.812 442.854 l 1
 527.111 703.519 l 1
 527.23 703.519 l 1
 501.599 747.894 l 1
 591.769 747.894 l 1
 467.803 425.861 l 1
 345.02 129.627 l 1
 222.214 425.791 l 1
384.946 94.6934 m 1
 495.541 94.6934 l 1
 521.171 50.3184 l 1
 167.33 50.3184 l 1
 192.962 94.6934 l 1
 305.048 94.6934 l 1
 175.756 406.598 l 1
 25 798.186 l 1
 217.692 798.186 l 1
 192.062 753.811 l 1
 89.6572 753.811 l 1
 216.747 423.59 l 1
 345.02 114.195 l 1
 473.293 423.661 l 1
 600.36 753.811 l 1
 498.191 753.811 l 1
 472.561 798.186 l 1
 664.993 798.186 l 1
 514.711 407.709 l 1
 384.946 94.6934 l 1
EndSplineSet
Validated: 5
EndChar

StartChar: w
Encoding: 119 119 78
Width: 1144
VWidth: 0
Flags: W
HStem: 0.0283203 44.375<206.527 539.707 740.163 1049.15> 703.519 44.375<207.898 208.042 488.374 602.896 681.28 793.697 1074.05 1074.38> 753.811 44.375<459.311 822.736>
LayerCount: 2
Fore
SplineSet
167.081 753.811 m 1
 192.712 798.186 l 1
 0.0175781 798.186 l 1
 150.751 406.598 l 1
 280.09 94.6934 l 1
 165.566 94.6934 l 1
 139.935 50.3184 l 1
 466.273 50.3184 l 1
 440.667 94.6934 l 1
 359.632 94.6934 l 1
 572.042 561.093 l 1
 784.448 94.5684 l 1
 699.202 94.5684 l 1
 673.594 50.1934 l 1
 975.75 50.1934 l 1
 950.12 94.5684 l 1
 863.377 94.5684 l 1
 1143.99 798.186 l 1
 949.36 798.186 l 1
 974.99 753.811 l 1
 1078.55 753.811 l 1
 823.854 114.385 l 1
 572.089 668.232 l 1
 319.896 114.503 l 1
 191.765 423.59 l 1
 64.6504 753.811 l 1
 167.081 753.811 l 1
197.232 425.791 m 1
 73.2666 747.894 l 1
 163.648 747.894 l 1
 138.042 703.519 l 1
 137.898 703.519 l 1
 238.649 441.742 l 1
 322.05 240.599 l 1
 532.896 703.519 l 1
 418.374 703.519 l 1
 392.741 747.894 l 1
 749.305 747.894 l 1
 723.697 703.519 l 1
 611.28 703.519 l 1
 820.802 242.611 l 1
 1004.38 703.519 l 1
 1004.05 703.519 l 1
 978.42 747.894 l 1
 1069.82 747.894 l 1
 823.476 129.437 l 1
 572.089 682.526 l 1
 320.156 129.343 l 1
 197.232 425.791 l 1
778.367 798.186 m 1
 752.736 753.811 l 1
 389.311 753.811 l 1
 363.679 798.186 l 1
 778.367 798.186 l 1
136.527 44.4033 m 1
 469.707 44.4033 l 1
 495.314 0.0283203 l 1
 110.919 0.0283203 l 1
 136.527 44.4033 l 1
670.163 44.2764 m 1
 979.15 44.2764 l 1
 1004.76 -0.0986328 l 1
 644.556 -0.0986328 l 1
 670.163 44.2764 l 1
EndSplineSet
Validated: 9
EndChar

StartChar: x
Encoding: 120 120 79
Width: 734
VWidth: 0
Flags: W
HStem: -0.0986328 44.375<90.3604 225.022 502.656 642.929> 754.584 44.375<90.0039 230.182 457.453 592.26>
LayerCount: 2
Fore
SplineSet
90.3604 44.2764 m 1
 225.022 44.2764 l 1
 258.583 -0.0986328 l 1
 5.37207 -0.0986328 l 1
 294.65 415.228 l 1
 0 798.959 l 1
 263.718 798.959 l 1
 259.363 793.185 l 1
 230.182 754.584 l 1
 90.0039 754.584 l 1
 321.253 453.45 l 1
 324.802 458.562 l 1
 102.028 748.667 l 1
 225.709 748.667 l 1
 192.174 704.292 l 1
 192.055 704.292 l 1
 351.403 496.76 l 1
 495.959 704.292 l 1
 495.462 704.292 l 1
 461.903 748.667 l 1
 580.946 748.667 l 1
 90.3604 44.2764 l 1
457.453 754.584 m 1
 428.249 793.185 l 1
 423.894 798.959 l 1
 677.246 798.959 l 1
 411.919 417.997 l 1
 732.934 -0.0986328 l 1
 469.121 -0.0986328 l 1
 502.656 44.2764 l 1
 642.929 44.2764 l 1
 385.294 379.751 l 1
 381.768 374.688 l 1
 630.907 50.1934 l 1
 507.13 50.1934 l 1
 540.642 94.5684 l 1
 540.879 94.5684 l 1
 355.143 336.441 l 1
 186.659 94.5684 l 1
 186.991 94.5684 l 1
 220.551 50.1934 l 1
 101.696 50.1934 l 1
 592.26 754.584 l 1
 457.453 754.584 l 1
EndSplineSet
Validated: 1
EndChar

StartChar: y
Encoding: 121 121 80
Width: 601
VWidth: 0
Flags: W
HStem: 0.249023 44.375<526.402 582.728> 50.541 44.375<497.41 532.438> 176.353 44.375<199.447 532.438> 226.645 44.375<249.739 532.438> 753.488 44.375<125.608 205.364 503.374 582.728>
VStem: 155.072 44.375<220.728 703.196> 205.364 44.375<271.02 753.488> 532.438 44.374<94.916 176.353 220.728 226.645 271.02 703.196> 582.728 44.375<44.624 753.488>
LayerCount: 2
Fore
SplineSet
501.812 747.571 m 1
 501.812 50.541 l 1
 422.41 50.541 l 1
 402.885 84.3369 l 1
 396.805 94.916 l 1
 457.438 94.916 l 1
 457.438 176.353 l 1
 80.0723 176.353 l 1
 80.0723 703.196 l 1
 79.6465 703.196 l 1
 54.0156 747.571 l 1
 124.447 747.571 l 1
 124.447 220.728 l 1
 457.438 220.728 l 1
 457.438 226.645 l 1
 130.364 226.645 l 1
 130.364 753.488 l 1
 50.6084 753.488 l 1
 25 797.863 l 1
 174.739 797.863 l 1
 174.739 271.02 l 1
 457.438 271.02 l 1
 457.438 703.196 l 1
 431.783 747.571 l 1
 501.812 747.571 l 1
402.768 797.863 m 1
 552.104 797.863 l 1
 552.104 0.249023 l 1
 451.402 0.249023 l 1
 425.795 44.624 l 1
 507.729 44.624 l 1
 507.729 753.488 l 1
 428.374 753.488 l 1
 408.92 787.166 l 1
 402.768 797.863 l 1
EndSplineSet
Validated: 1
EndChar

StartChar: bar
Encoding: 124 124 82
Width: 195
VWidth: 0
Flags: W
HStem: 0 21G<50.248 94.623 100.54 144.915> 0 21G<50.248 94.623 100.54 144.915> 779.629 20G<50.248 94.623 100.54 144.915> 779.629 20G<50.248 94.623 100.54 144.915>
VStem: 50.248 44.375<0 799.629> 100.54 44.375<0 799.629>
LayerCount: 2
Fore
SplineSet
144.915 0 m 1xac
 100.54 0 l 1
 100.54 799.629 l 1
 144.915 799.629 l 1
 144.915 0 l 1xac
94.623 0 m 1
 50.248 0 l 1
 50.248 799.629 l 1
 94.623 799.629 l 1
 94.623 0 l 1
EndSplineSet
Validated: 1
EndChar

StartChar: asciitilde
Encoding: 126 126 84
Width: 815
VWidth: 0
Flags: W
HStem: 896.085 44.375<208 608.629> 946.377 44.375<208 608.629>
LayerCount: 2
Fore
SplineSet
208 896.085 m 1
 208 940.46 l 1
 608.629 940.46 l 1
 608.629 896.085 l 1
 208 896.085 l 1
208 946.377 m 1
 208 990.752 l 1
 608.629 990.752 l 1
 608.629 946.377 l 1
 208 946.377 l 1
EndSplineSet
Validated: 1
EndChar

StartChar: quotesingle
Encoding: 39 39 105
Width: 273
VWidth: 0
Flags: W
HStem: 864.036 44.375<50 132.608> 914.326 44.375<50 113.701>
VStem: 128.455 44.375<973.211 1112.61> 178.748 44.375<953.283 1112.61>
LayerCount: 2
Fore
SplineSet
172.83 1011.98 m 2
 172.83 1007.98 171.434 914.326 50 914.326 c 1
 50 958.701 l 1
 124.67 958.701 128.455 1003.08 128.455 1011.98 c 2
 128.455 1112.61 l 1
 172.83 1112.61 l 1
 172.83 1011.98 l 2
178.748 1011.98 m 2
 178.748 1112.61 l 1
 223.123 1112.61 l 1
 223.123 1011.98 l 2
 223.123 970.844 192.023 864.036 50 864.036 c 1
 50 908.411 l 1
 177.256 908.411 178.748 1010.93 178.748 1011.98 c 2
EndSplineSet
Validated: 5
EndChar

StartChar: asterisk
Encoding: 42 42 108
Width: 200
VWidth: 0
Flags: W
HStem: 318.316 138.095
VStem: 30.9443 138.096
LayerCount: 2
Fore
SplineSet
169.04 385.256 m 1
 137.662 353.878 l 1
 66.5059 425.033 l 1
 97.8838 456.411 l 1
 169.04 385.256 l 1
133.478 349.694 m 1
 102.1 318.316 l 1
 30.9443 389.472 l 1
 62.3223 420.85 l 1
 133.478 349.694 l 1
EndSplineSet
Validated: 1
EndChar

StartChar: plus
Encoding: 43 43 109
Width: 500
VWidth: 0
Flags: W
HStem: 352.085 44.375<50 202.98 247.355 253.272 297.647 450.629> 402.377 44.375<50 202.98 247.355 253.272 297.647 450.629>
VStem: 202.98 44.375<194.104 352.085 446.752 599.732> 253.272 44.375<194.104 352.085 446.752 599.732>
LayerCount: 2
Fore
SplineSet
50 402.377 m 1
 50 446.752 l 1
 202.98 446.752 l 1
 202.98 599.732 l 1
 247.355 599.732 l 1
 247.355 446.752 l 1
 253.272 446.752 l 1
 253.272 599.732 l 1
 297.647 599.732 l 1
 297.647 446.752 l 1
 450.629 446.752 l 1
 450.629 402.377 l 1
 50 402.377 l 1
50 352.085 m 1
 50 396.46 l 1
 450.629 396.46 l 1
 450.629 352.085 l 1
 297.647 352.085 l 1
 297.647 194.104 l 1
 253.272 194.104 l 1
 253.272 352.085 l 1
 247.355 352.085 l 1
 247.355 194.104 l 1
 202.98 194.104 l 1
 202.98 352.085 l 1
 50 352.085 l 1
EndSplineSet
Validated: 1
EndChar

StartChar: AE
Encoding: 198 198 111
Width: 1013
VWidth: 0
Flags: W
HStem: 156.943 44.1573<693.34 988.387> 206.989 44.1587<725.699 988.409> 382.255 44.1573<260.262 543.322> 432.3 44.1573<282.824 520.782> 537.384 44.1573<596.641 700.9> 587.429 44.1587<574.054 729.773> 857.888 44.1573<165.189 351.877 400.321 403.263 452.109 738.087> 908.875 44.1587<136.292 766.961>
LayerCount: 2
Fore
SplineSet
692.563 49.46 m 1
 693.34 47.7402 l 1
 988.387 47.7402 l 1
 988.387 3.58301 l 1
 664.82 3.58301 l 1
 563.246 228.895 l 1
 240.339 228.895 l 1
 137.423 0.615234 l 1
 88.9775 0.615234 l 1
 401.781 694.425 l 1
 692.563 49.46 l 1
401.805 586.962 m 1
 282.824 323.097 l 1
 520.782 323.097 l 1
 401.805 586.962 l 1
260.262 273.052 m 1
 543.322 273.052 l 1
 540.685 278.939 l 1
 262.925 278.939 l 1
 260.262 273.052 l 1
139.683 749.628 m 1
 763.569 748.686 l 1
 738.087 704.528 l 1
 452.109 704.528 l 1
 554.155 478.228 l 1
 755.279 478.228 l 1
 729.773 434.069 l 1
 574.055 434.069 l 1
 576.717 428.182 l 1
 726.383 428.182 l 1
 700.9 384.024 l 1
 596.642 384.024 l 1
 725.699 97.7871 l 1
 988.408 97.7871 l 1
 988.408 53.6289 l 1
 697.179 53.6289 l 1
 404.489 702.785 l 1
 403.264 705.47 l 1
 400.32 705.47 l 1
 82.5254 0.615234 l 1
 34.0801 0.615234 l 1
 351.877 705.47 l 1
 165.188 705.47 l 1
 139.683 749.628 l 1
766.961 754.573 m 1
 136.292 755.515 l 1
 110.786 799.674 l 1
 792.466 798.73 l 1
 766.961 754.573 l 1
EndSplineSet
Validated: 1
EndChar

StartChar: OE
Encoding: 338 338 112
Width: 781
VWidth: 0
Flags: W
HStem: 0.476562 44.1582<59.5605 338.475 339.864 726.475> 50.5225 44.1582<88.4814 290.736 340.218 342.714 393.559 755.371> 379.764 44.1572<581.26 650.265> 429.81 44.1582<579.989 679.162> 702.34 44.1582<102.941 288.404 339.91 343.091 396.338 710.178> 752.387 44.1572<74.0215 739.099>
LayerCount: 2
Fore
SplineSet
179.977 423.897 m 1
 341.701 693.908 l 1
 523.631 423.874 l 1
 341.725 104.76 l 1
 179.977 423.897 l 1
471.679 421.943 m 1
 343.891 611.622 l 1
 230.376 422.108 l 1
 343.985 197.928 l 1
 471.679 421.943 l 1
39.3301 9.54492 m 1
 59.5605 44.6348 l 1
 751.98 44.6348 l 1
 726.475 0.476562 l 1
 339.864 0.476562 l 1
 339.109 -0.818359 l 1
 338.475 0.476562 l 1
 34.0801 0.476562 l 1
 39.3301 9.54492 l 1
393.559 94.6807 m 1
 780.853 94.6807 l 1
 773.152 81.3271 l 1
 755.371 50.5225 l 1
 62.9766 50.5225 l 1
 88.4814 94.6807 l 1
 290.736 94.6807 l 1
 122.843 425.924 l 1
 288.404 702.34 l 1
 102.941 702.34 l 1
 77.4375 746.498 l 1
 735.684 746.498 l 1
 710.178 702.34 l 1
 396.338 702.34 l 1
 550.22 473.968 l 1
 704.667 473.968 l 1
 679.162 429.81 l 1
 579.989 429.81 l 1
 582.485 426.089 l 1
 581.26 423.921 l 1
 675.745 423.921 l 1
 650.265 379.764 l 1
 556.085 379.764 l 1
 393.559 94.6807 l 1
340.218 94.6807 m 1
 342.714 94.6807 l 1
 529.637 422.579 l 1
 530.556 424.157 l 1
 343.091 702.363 l 1
 339.91 702.363 l 1
 174.066 425.547 l 1
 173.241 424.134 l 1
 338.922 97.2246 l 1
 340.218 94.6807 l 1
739.099 752.387 m 1
 74.0215 752.387 l 1
 48.5391 796.544 l 1
 764.581 796.544 l 1
 739.099 752.387 l 1
EndSplineSet
Validated: 1
EndChar

StartChar: ae
Encoding: 230 230 113
Width: 1013
VWidth: 0
Flags: W
HStem: 3.58301 44.1572<693.34 988.387> 53.6289 44.1582<725.699 988.408> 228.895 44.1572<260.262 543.322> 278.939 44.1572<282.824 520.782> 384.024 44.1572<596.642 700.9> 434.069 44.1582<574.055 729.773> 705.47 44.1582<165.188 351.877 400.32 403.264 452.109 738.087> 755.515 44.1592<136.292 766.961>
LayerCount: 2
Fore
SplineSet
692.563 49.46 m 1
 693.34 47.7402 l 1
 988.387 47.7402 l 1
 988.387 3.58301 l 1
 664.82 3.58301 l 1
 563.246 228.895 l 1
 240.339 228.895 l 1
 137.423 0.615234 l 1
 88.9775 0.615234 l 1
 401.781 694.425 l 1
 692.563 49.46 l 1
401.805 586.962 m 1
 282.824 323.097 l 1
 520.782 323.097 l 1
 401.805 586.962 l 1
260.262 273.052 m 1
 543.322 273.052 l 1
 540.685 278.939 l 1
 262.925 278.939 l 1
 260.262 273.052 l 1
139.683 749.628 m 1
 763.569 748.686 l 1
 738.087 704.528 l 1
 452.109 704.528 l 1
 554.155 478.228 l 1
 755.279 478.228 l 1
 729.773 434.069 l 1
 574.055 434.069 l 1
 576.717 428.182 l 1
 726.383 428.182 l 1
 700.9 384.024 l 1
 596.642 384.024 l 1
 725.699 97.7871 l 1
 988.408 97.7871 l 1
 988.408 53.6289 l 1
 697.179 53.6289 l 1
 404.489 702.785 l 1
 403.264 705.47 l 1
 400.32 705.47 l 1
 82.5254 0.615234 l 1
 34.0801 0.615234 l 1
 351.877 705.47 l 1
 165.188 705.47 l 1
 139.683 749.628 l 1
766.961 754.573 m 1
 136.292 755.515 l 1
 110.786 799.674 l 1
 792.466 798.73 l 1
 766.961 754.573 l 1
EndSplineSet
Validated: 1
EndChar

StartChar: oe
Encoding: 339 339 114
Width: 781
VWidth: 0
Flags: W
HStem: 0.476562 44.1582<59.5605 338.475 339.864 726.475> 50.5225 44.1582<88.4814 290.736 340.218 342.714 393.559 755.371> 379.764 44.1572<581.26 650.265> 429.81 44.1582<579.989 679.162> 702.34 44.1582<102.941 288.404 339.91 343.091 396.338 710.178> 752.387 44.1572<74.0215 739.099>
LayerCount: 2
Fore
SplineSet
179.977 423.897 m 1
 341.701 693.908 l 1
 523.631 423.874 l 1
 341.725 104.76 l 1
 179.977 423.897 l 1
471.679 421.943 m 1
 343.891 611.622 l 1
 230.376 422.108 l 1
 343.985 197.928 l 1
 471.679 421.943 l 1
39.3301 9.54492 m 1
 59.5605 44.6348 l 1
 751.98 44.6348 l 1
 726.475 0.476562 l 1
 339.864 0.476562 l 1
 339.109 -0.818359 l 1
 338.475 0.476562 l 1
 34.0801 0.476562 l 1
 39.3301 9.54492 l 1
393.559 94.6807 m 1
 780.853 94.6807 l 1
 773.152 81.3271 l 1
 755.371 50.5225 l 1
 62.9766 50.5225 l 1
 88.4814 94.6807 l 1
 290.736 94.6807 l 1
 122.843 425.924 l 1
 288.404 702.34 l 1
 102.941 702.34 l 1
 77.4375 746.498 l 1
 735.684 746.498 l 1
 710.178 702.34 l 1
 396.338 702.34 l 1
 550.22 473.968 l 1
 704.667 473.968 l 1
 679.162 429.81 l 1
 579.989 429.81 l 1
 582.485 426.089 l 1
 581.26 423.921 l 1
 675.745 423.921 l 1
 650.265 379.764 l 1
 556.085 379.764 l 1
 393.559 94.6807 l 1
340.218 94.6807 m 1
 342.714 94.6807 l 1
 529.637 422.579 l 1
 530.556 424.157 l 1
 343.091 702.363 l 1
 339.91 702.363 l 1
 174.066 425.547 l 1
 173.241 424.134 l 1
 338.922 97.2246 l 1
 340.218 94.6807 l 1
739.099 752.387 m 1
 74.0215 752.387 l 1
 48.5391 796.544 l 1
 764.581 796.544 l 1
 739.099 752.387 l 1
EndSplineSet
Validated: 1
EndChar

StartChar: dieresis
Encoding: 168 168 120
Width: 815
VWidth: 0
Flags: W
HStem: 896.085 44.375<208 356.629 459 607.629> 946.377 44.375<208 356.629 459 607.629>
VStem: 208 148.629<896.085 940.46 946.377 990.752> 459 148.629<896.085 940.46 946.377 990.752>
LayerCount: 2
Fore
SplineSet
459 896.085 m 1
 459 940.46 l 1
 607.629 940.46 l 1
 607.629 896.085 l 1
 459 896.085 l 1
459 946.377 m 1
 459 990.752 l 1
 607.629 990.752 l 1
 607.629 946.377 l 1
 459 946.377 l 1
208 896.085 m 1
 208 940.46 l 1
 356.629 940.46 l 1
 356.629 896.085 l 1
 208 896.085 l 1
208 946.377 m 1
 208 990.752 l 1
 356.629 990.752 l 1
 356.629 946.377 l 1
 208 946.377 l 1
EndSplineSet
Validated: 1
EndChar

StartChar: plusminus
Encoding: 177 177 121
Width: 500
VWidth: 0
Flags: W
HStem: 111.085 44.375<50 450.629> 161.377 44.375<50 450.629> 463.085 44.375<50 202.98 247.355 253.272 297.647 450.629> 513.377 44.375<50 202.98 247.355 253.272 297.647 450.629>
VStem: 202.98 44.375<305.104 463.085 557.752 710.732> 253.272 44.375<305.104 463.085 557.752 710.732>
LayerCount: 2
Fore
SplineSet
50 111.085 m 5
 50 155.46 l 5
 450.629 155.46 l 5
 450.629 111.085 l 5
 50 111.085 l 5
50 161.377 m 5
 50 205.752 l 5
 450.629 205.752 l 5
 450.629 161.377 l 5
 50 161.377 l 5
50 513.377 m 5
 50 557.752 l 5
 202.98 557.752 l 5
 202.98 710.732 l 5
 247.355 710.732 l 5
 247.355 557.752 l 5
 253.272 557.752 l 5
 253.272 710.732 l 5
 297.647 710.732 l 5
 297.647 557.752 l 5
 450.629 557.752 l 5
 450.629 513.377 l 5
 50 513.377 l 5
50 463.085 m 5
 50 507.46 l 5
 450.629 507.46 l 5
 450.629 463.085 l 5
 297.647 463.085 l 5
 297.647 305.104 l 5
 253.272 305.104 l 5
 253.272 463.085 l 5
 247.355 463.085 l 5
 247.355 305.104 l 5
 202.98 305.104 l 5
 202.98 463.085 l 5
 50 463.085 l 5
EndSplineSet
Validated: 1
EndChar

StartChar: acute
Encoding: 180 180 122
Width: 815
VWidth: 0
Flags: W
HStem: -0.0537109 21G<24 136.866 650.362 763.229> 229.607 44.375<251.39 535.839> 279.898 44.375<274.062 513.166> 707.344 44.3262<141.859 342.884 444.295 647.615> 757.587 44.375<112.797 676.631>
LayerCount: 2
Fore
SplineSet
208 896.085 m 1
 208 940.46 l 1
 608.629 940.46 l 1
 608.629 896.085 l 1
 208 896.085 l 1
208 946.377 m 1
 208 990.752 l 1
 608.629 990.752 l 1
 608.629 946.377 l 1
 208 946.377 l 1
EndSplineSet
Validated: 1
EndChar

